<svg version="1.1" id="Bond_cleaners" xmlns="http://www.w3.org/2000/svg" xmlns:xlink="http://www.w3.org/1999/xlink" x="0" y="0" width="710" height="625" viewBox="0 0 710 625" enable-background="new 0 0 710 625" xml:space="preserve"><g id="Hero_1_"><ellipse id="Shadow" opacity=".05" cx="559" cy="613.1" rx="104.3" ry="5.2"/><ellipse id="Shadow_1_" opacity=".05" cx="320.2" cy="612.3" rx="107.7" ry="6"/><ellipse id="Shadow_2_" opacity=".05" cx="148.5" cy="612.3" rx="96.3" ry="6"/><g id="Woman_3_1_"><g><path fill="#B67D76" d="M341.9,67.2c0,0,3.1,19.4,1.4,39.1c-1.6,19.7-14.3,33.5-23.2,33.5S295.8,128,291,113.5 c0,0-8.9-3.3-9.5-13c-0.6-9.7,8.9-8.5,11.9-3.2c0,0-2.2-15,6.7-30.2S337.5,55.4,341.9,67.2z"/><g><ellipse fill="#010000" cx="311.1" cy="99.5" rx="1.7" ry="2.5"/><ellipse fill="#010000" cx="333.3" cy="99.5" rx="1.7" ry="2.5"/></g><path fill="#340415" d="M331.6,90.4c0,0,2.6-1.2,5.8-1.2c3.2,0,4.8,0.6,4.8,0.6s-1.2-2.1-4.8-2.1 C333.7,87.8,331.6,90.4,331.6,90.4z"/><path fill="#340415" d="M303.9,88.8c0,0,2.7-1.1,5.8-0.9c3.2,0.1,4.8,0.8,4.8,0.8s-1.1-2.2-4.7-2.3 C306.1,86.3,303.9,88.8,303.9,88.8z"/><path fill="none" stroke="#5E403D" stroke-miterlimit="10" d="M328.5,94.2c0,0-3,3-3.3,6.5s2.9,7.1,4.6,9.5s1.7,3.5-2.9,5.5"/><path fill="#FFFEFB" d="M317.3,119.4h14.1c0,0,0,0.9-0.3,1.4c-0.3,0.5-2.5,4.3-6.3,4.4c-3.8,0.1-7.5-4.8-7.5-4.8 S317.1,119.8,317.3,119.4z"/><path fill="#B67D76" d="M287.8,111.8c0,0,3.3,13.6,1.7,21.5c-1.5,7.8-19,23.8-35.1,28.5c0,0,27.8,29.4,57.2,29 c29.4-0.4,20.6-25.1,20.6-25.1l2-3.5c0,0-14.3-6.4-17.9-11.4c-2.4-3.3-2.7-12.4-2.7-12.4l-22.3-25.6 C291.4,112.7,288.9,111.5,287.8,111.8z"/><path fill="#93655F" d="M290,112.7c0,0,1.5,6.6,8.1,17.5c4.7,7.8,11.3,12.5,16.5,14.6c0,0-0.8-2.3-0.7-6.5 C313.8,138.3,298.8,129.5,290,112.7z"/><g><path fill="#DFAA88" d="M293.3,97.4c0-0.1,0-0.1,0-0.2C293.3,97.3,293.3,97.4,293.3,97.4z"/><path fill="#B67D76" d="M291,113.5c0,0,3.7-5,2.4-16.1c-3-5.3-12.5-6.5-11.9,3.2C282.1,110.3,291,113.5,291,113.5z"/></g><path fill="#93655F" d="M286.1,98.2c0,0,2.4-0.4,2.6,0.4s-2.2,0.5-2.6,1.2c-0.4,0.7-0.2,2.5,1.7,3.3c1.9,0.9,1.1,4-1.2,3.1 C284.3,105.2,282.9,101,286.1,98.2z"/><circle fill="#1DC1A5" cx="288.6" cy="108.7" r="2.2"/><circle fill="#1DC1A5" cx="288.6" cy="108.7" r="1.8"/></g><g><path fill="#A3716B" d="M350.4,408c0,0-3,57.5-2.9,66.6c0.3,21.7-4.6,88.1-4.7,94s1.5,16.4,17.9,24.6l1.9,4.5l-33.3-5.1l-7.9-6.8 c0,0,2.1-8.8,1.5-18.5c-1.3-21.7-11.9-62.7-9.3-86.6c1.1-10.2-0.6-27.4-2.5-30.3c-1.8-3-4.5-33.3-4.5-33.3l6.4-23.5l36.4,2.3 L350.4,408z"/><path fill="#875E59" d="M350.2,414c0,0-17.3,1.8-25.6,7.9c-8.3,6.1-5.7,32.4-7,42.8c-1.3,10.4-3.4,39.8-3.4,39.8l-1.8-42.3 l-8.6-58.7h46.3L350.2,414z"/><path fill="#B67D76" d="M320,402.6l-24.7,168.3c0,0-1.9,14.9,10.5,21.6l4.5,7.3l-35.1-1.5c-0.3,0-2.8-0.3-2.6-0.6 c0.7-1,1.6-3.4,2.3-8.3c4.3-29.7-8.1-66.6,0.8-112.6c2.7-14.2-8.1-62.8-8.1-64.5s-7-38.3-7-38.3l50.8-6.7l10.5,6.2l-0.7,21.4 L320,402.6z"/><path fill="#93655F" d="M268,415.4c0,0,12.9,3.3,28.1,5.5c11.7,1.7,21.1,0.8,21.1,0.8s1.9-11.5,1.9-12.2 c0-14.4-56.5-19.1-56.5-19.1L268,415.4z"/><g><g><path fill="#E0E0E0" d="M384.1,613.2c-1.3,0.5-2.8,0.7-4.2,0.7l-46.3-0.1l-9.1,0c-3.4-0.3-8.7-5.2-8.3-8.6l0.6-4.9l0.3-2.4 l1.2-0.4l6.2,1.6l1.2,0.3l8.4,0.8l27.4,2.7l25.2,2.5l0.4,1.4l0.2,0.6C387.4,607.6,389,611.2,384.1,613.2z"/><path fill="#8FA4AE" d="M387.5,605.3c0,0.7-0.1,1.2-0.2,1.7c-0.8,3-4,3.8-7.3,3.7c-4.9-0.1-9.5-0.6-14.3-1.7 c-9.5-2.1-19.3-2.6-29-1.5c-0.7,0.1-1.3,0.2-2,0.2c-4.6,0.6-9.1,2.7-13.3,0c-2.5-1.6-4.2-4.4-4.6-7.3c-0.1-1-0.1-1.9,0.1-2.9 c0,0,2-6.4,2.4-8.7c0.1-0.5,0.1-0.8,0.1-0.8c0.4-2.3,2.3-3.5,4.3-2.3c0.2,0.2,0.5,0.3,0.7,0.4c9,5.3,17,7,23,7.2 c6.1,0.2,10.3-1.1,11.8-1.6c0.4-0.1-0.8,0.3-0.8,0.3l19.3,7l5.5,2.4c2.2,1,3.8,1.4,4.1,3.5C387.5,605,387.5,605.1,387.5,605.3z"/></g><path opacity=".32" d="M336.8,607.5c-0.1,1.5-0.6,3.2-1.7,5.1c0,0-0.7,0.6-1.5,1.3l-9.1,0c-3.4-0.3-8.7-5.2-8.3-8.6l0.6-4.9 c-0.1-1-0.1-1.9,0.1-2.9c0,0,2-6.4,2.4-8.7l1.8,0.6c0,0,1.3,0.5,3.2,1.6c1.6,1,3.6,2.5,5.5,4.5c1.5,1.6,3.1,3.2,4.4,4.9 c0.4,0.5,0.8,1.1,1.1,1.6C336.4,603.6,336.9,605.4,336.8,607.5z"/></g><g><g><path fill="#E0E0E0" d="M270.7,599.4c0,0.1,0,0.1,0,0.2c-0.4,3-0.8,6.1-0.7,9.2c0,1.6,0.2,3.3,1.1,4.6c0.7,1,3.4,1.3,4.4,1.5 c2.4,0.4,5.3-0.1,7.7-0.1c3.6,0,7.1-0.4,10.6-0.6c7.5-0.4,15,0.4,22.4,0.1c1.7-0.1,3.5-0.2,5.1-0.9c1.6-0.7,3-2.2,3.3-4 c0.3-1.8-0.6-4.4-1.8-5.7c-0.9-1-1.5-0.9-2.8-1c-2.5-0.2-5-0.4-7.5-0.6c-6.9-0.5-13.8-1.1-20.7-1.6c-3.5-0.3-7-0.5-10.5-0.8 c-3.3-0.3-6.8-0.9-10-0.7c-0.2,0-0.3,0-0.4,0.1C270.8,599.2,270.8,599.3,270.7,599.4z"/><path fill="#8FA4AE" d="M322.7,604.7c0-1.6-0.7-3.2-1.8-4.3c-1.1-1.3-2.6-2.2-4-3.1c-2.7-1.7-8.3-3.8-11-5.5 c-1.3-0.8-2.9,0.1-4.2,0.3c-2.3,0.4-5.1,1.5-7.4,1.4c-3.5-0.1-5.9-0.4-9.2-1.5c-3.6-1.2-6.4-3.9-10.3-4.6 c-1.4-0.3-3.8,4.9-3.9,7.3c-0.1,3.1,0,6.3,1.3,9.1c0.9,1.9,2.6,3.6,4.5,4.3c2,0.6,4.1-0.8,6.1-1.1c5.9-0.8,11.8-0.9,17.8-0.3 c2.9,0.3,6,0.5,8.9,1.4c2.6,0.8,4.9,2.2,7.7,2c2.6-0.2,5.2-2,5.5-4.8C322.7,605,322.7,604.8,322.7,604.7z"/></g></g><path fill="#E8EAF6" d="M265.7,413.2l9.1,0.8l2.7-19.9l3.6,20.4c0,0,36.2,6,70.6-3.5c3-0.8,5.1-3.6,4.9-6.7 c-0.1-1.3-0.2-2.7-0.5-4c-0.8-3.4,3.4-26.1,3.4-27.3c0-1.2,2.6-17.7,0.5-20.9c-2.1-3.3-64.7,0.7-64.7,0.7l-37.9,4.1l-2.4,12.9 L265.7,413.2z"/></g><path fill="#B67D76" d="M331.9,178.8c-8.1,2.5-11.8,11.9-7.5,19.2l40.2,68.5c4.4,7.5,12.5,12,21.2,11.7L371,254.7l-18-69.5 c-3.9-8.1-12-9.2-20.6-6.6C332.2,178.7,332.1,178.7,331.9,178.8z"/><path fill="#F6B01F" d="M373.3,351.6c-28.4,13.3-61.6,18.6-91.9,9.2c-8.6-2.7-17.2-5.1-25.9-7.6c-2.5-0.7-11.4-1.8-12.7-3.7 c-1.3-2,2.1-11.1,2.7-13.8c1.9-8.4,6.3-16.3,9.7-24.1c3.7-8.4,7.3-16.8,11-25.3c2-4.7,5.3-9.8,5.4-14.9 c0.1-11.8-5.7-24.9-9.6-35.8c-2.1-6-4.7-11.2-5.1-17.5c-0.6-8.7-1-17.4-1.4-26.1c-0.3-5.8-0.5-11.6-0.6-17.3 c-0.1-2.9-1-7.7,0.1-10.6c1-2.8,7-6.5,9.7-7.5c5.3-1.9,8.7,1.9,11.9,5.6c8.4,9.9,19.3,14.6,32.5,13.4c5.5-0.5,11.8-1.7,16.4-5.1 c1.3-1,7.7-8.5,4.5-10.5c4,1.4,7.5,2.6,10.6,5.4c3.6,3.3,6.2,8.1,8.7,12.2c1.5,2.5,3.6,6.2,4.3,9.2c0.5,2.3,0.5,5.4,0.3,7.8 c-1.5,11.9,3.5,25.4,2.6,37.4c-0.7,9.2-6.9,17-7.6,26.3c-0.3,3.8-1.4,8.4-0.9,12.2c0.5,4.1,2.7,8.6,4,12.6 c2.7,8.4,5.3,16.8,8,25.3C364.3,322.8,368.8,337.2,373.3,351.6z"/><polygon fill="#D89F21" points="266.4,287.8 265.6,303.5 255.2,353.1 242.4,349.3 246.4,331.9 265.2,288.6"/><path fill="#D89F21" d="M271,198.3c-4.7,20.7-1.1,60.4-1.1,60.4l-11.5-33.2l-6.5-23.4L271,198.3z"/><g><path fill="none" stroke="#FFF" stroke-width="1.368" stroke-miterlimit="10" d="M273.2,338.4l-34.1-2.1l-2.4-145.8 c-0.1-8.3,2.8-16.4,8.3-22.8l3.4-3.9c2.6-3,6.4-4.5,10.4-4.2c11.2,1,17.6,6.4,19.7,34c0,0,1.4,40.5-1.4,78.9 S273.2,338.4,273.2,338.4z"/><g><path fill="#D89F21" d="M284.7,387.6l-25.5-0.8l-0.2-57.2l18.7,0.8c4,0.2,7.3,3.3,7.7,7.3l5.1,43.8 C290.8,384.8,288.1,387.7,284.7,387.6z"/><path fill="#F6B01F" d="M271.7,381.2c-0.4,3.6-3.6,6.2-7.1,6l-29.4-1.7c-8-0.7-13.8-7.9-12.7-15.9l5.7-40.9l49.9,1.5 L271.7,381.2z"/><path fill="#D89F21" d="M277.1,330.5c0,0-2.2,2.3-3.7,4.5c-1.6,2.4-2.9,6.6-4,12.7c-2.2,12.1-7.9,15.1-15.2,14.8 s-17.5-0.2-20.6-12.3c-3.1-12.1-5.2-19-5.2-19L277.1,330.5z"/><path fill="#F6B01F" d="M277.9,330.1c0,0-6.5,2.8-8.7,14.9c-2.2,12.1-7.9,15.1-15.2,14.8s-17.5-0.2-20.6-12.3 c-3.1-12.1-5.2-19-5.2-19L277.9,330.1z"/><ellipse fill="#E8EAF6" cx="250.3" cy="352.4" rx="2.1" ry="2.6"/></g></g><g><path fill="#B67D76" d="M289.8,299.5c-4.9-6-13-13.4-17.7-19.5c-8.6-11.1-15-18.8-23.6-29.9l23.2-65c3.1-8.5-0.4-17.9-8.3-22.3 c-0.1-0.1-0.3-0.2-0.4-0.2c-7.4-4.1-16.8-0.2-19.1,8c-4.4,15.8-8.8,31.7-13.2,47.5c-1.8,6.6-3.7,13.3-5.5,19.9 c-1.6,5.8-4.8,12.2-3.2,18.1c2.8,10.5,29.6,34.1,32.5,36.8c2.3,2.1,10.8,11.5,13,13.6c2,1.8,4,4.3,6.7,4.2 c6-0.1,11.3,2.1,17.3,2.6c1.2,0.1,2.3,0.1,3.4-0.4c1.1-0.4,2-1.3,2.2-2.5c0.3-1.6-0.8-3.1-1.8-4.3 C293.4,303.9,291.5,301.7,289.8,299.5z"/></g><g><linearGradient id="SVGID_1_" gradientUnits="userSpaceOnUse" x1="-7727.922" y1="294.697" x2="-7713.792" y2="294.697" gradientTransform="matrix(-1 0 0 1 -7328.4531 0)"><stop offset="0" stop-color="#B67D76"/><stop offset="1" stop-color="#9B6A67"/></linearGradient><path fill="url(#SVGID_1_)" d="M394.6,284.3c0.3,0,0.7,0,1,0.2c0.2,0.2,0.4,0.5,0.5,0.9c1.5,3.8,2.3,8,3,12.2 c0.3,1.7,0.6,3.5,0.1,5.1c-0.4,1.6-1.8,3-3.1,2.6c-0.7-0.3-1.3-1-1.8-1.7c-3.5-4.9-6.9-10.1-8.9-16.3 C384.1,283,393,284.3,394.6,284.3z"/><g><rect x="282.3" y="229" fill="#D68A56" width="65.8" height="83.3"/><rect x="328.1" y="229" fill="#FEC582" width="63.3" height="83.3"/><path opacity=".2" fill="#7A4826" d="M282.3,289.2v8.6c1.9,2.4,4,4.6,6.1,6.8c2.4,2.5,4.9,4.9,7.8,6.8c0.5,0.3,1.1,0.6,1.6,0.9 c2.5,1.3,5.4,2.1,8.2,1.8c2-0.2,3.9-0.9,5.7-1.8c0.9-0.4,1.8-0.9,2.7-1.4c1.2-0.7,2.6-1.7,2.6-3.1c-4.8-0.3-9.7-0.6-14.5-1 c-2.6-0.2-3.7-0.6-5.8-2.3c-1.7-1.4-3.3-2.8-4.8-4.3c-1-0.9-2-1.9-2.4-3.2c-0.3-0.8-0.3-1.6-0.4-2.4c-0.3-2-1.3-3.9-3-4.9 C285.3,289.1,283.8,288.9,282.3,289.2z"/><path fill="#B67D76" d="M315.7,312.3c-1.4,0-2.6-0.4-4-0.6c-1.4-0.2-2.8-0.4-4.2-0.7c-4.5-1-8.1-1.3-11.6-4.3 c-3-2.6-5.6-5.7-8.4-8.5c-3.7-3.7-7.5-7.5-11.2-11.2l-8.7,1.5l-2.7,9.9l4.8,10.5c5.3,3.8,10.9,7.3,16.7,10.3 c4.1,2.1,8.7,4.5,13.3,5.3c6.4,1.2,13.6,0.1,19.9-1.1c3.7-1.1,3.9-0.9,6.8-3.5c2.7-2.3,3.5-3.2,4.9-4.9c0.9-1.1,1.7-2.1,1.6-2.6 C329.9,312.1,318.7,312.3,315.7,312.3z"/><path fill="#B67D76" d="M314.7,305.6c-1,0.1-1.9,0.3-2.8,0.6c-1.4,0.5-2.6,1.2-3.9,1.7c-1.3,0.5-2.3,0.4-3.6,0.5 c-1.6,0.2-3.2,0.5-4.8,0.5c-0.8,0-3.7,0.5-4.4-0.1c1.8,1.5,3.7,3.1,5.9,4c3.1,1.3,6.4,1.9,9.7,1.1c3.2-0.8,6.1-2.4,8.3-4.8 c0.5-0.5,1-1.2,0.9-1.9c-0.2-0.9-1.1-1.3-2-1.5C317,305.6,315.9,305.5,314.7,305.6z"/><path opacity=".4" fill="#7A4826" d="M370.5,312.3h17.8c-0.6-1.2-1.3-2.4-2.1-3.5c-1.3-2-2.4-4.2-3.5-6.4c-1-2-2.1-4.7-3.8-6.2 c-0.4,0.4,0.1,2,0.2,2.6c0.1,1,0.1,2.1-0.1,3.1C378.4,307.1,374.8,310.1,370.5,312.3z"/><rect x="354.9" y="228.4" transform="matrix(-1 -4.495660e-11 4.495660e-11 -1 726.4355 476.8147)" fill="#FEFFFF" width="16.6" height="20"/><rect x="291.2" y="229" transform="matrix(-1 -4.512092e-11 4.512092e-11 -1 594.5082 475.1518)" fill="#FDDAB4" width="12.2" height="17.2"/></g><path fill="#B67D76" d="M399.7,302.2c-0.2-2.6-1.1-4.7-2.9-7.5c-1.9-3.1-4-6.1-6.3-9c-1.1-1.4-2.3-2.8-3.4-4.2 c-1-1.2-1.6-2.3-3-3.3c-0.6-0.5-1.6-0.8-2.1-0.2c-0.5,0.5-0.1,1.4,0.2,2c2.7,4.6,5.8,8.9,8.9,13.2c-1.3-1.7-2.6-3.4-4-5.1 c-1.2-1.6-2.5-3.1-4-4.4c-0.8-0.6-1.7-1.2-2.7-1.2c-0.1,0-0.3,0-0.4,0.1c-0.1,0.1-0.1,0.3-0.1,0.4c0.1,1.2,0.8,2.2,1.5,3.1 c2.8,3.8,5.4,7.7,7.8,11.7c-1.9-2.6-4.1-5.1-6.3-7.4c-0.8-0.9-1.8-1.7-3-1.9c-0.1,0-0.2,0-0.4,0c-0.2,0.1-0.3,0.4-0.2,0.6 c0,0.7,0.4,1.4,0.8,2c2.4,3.7,4.7,7.5,7.1,11.2c-1.3-1.4-2.6-2.8-3.9-4.1c-1-1-2-2.1-3.3-2.8c-0.3-0.2-0.8-0.3-1,0 c-0.1,0.1-0.1,0.3-0.1,0.5c0.1,1.1,0.6,2.2,1,3.2c0.6,1.4,1.3,2.7,1.9,4.1c0.8,1.6,2.1,3.9,1.9,5.8c-0.3,2.6-3.5,3.2-5.7,3.2 c0.8,2.5,3.6,3.8,6.2,4.5c3.2,0.8,6.6,1.3,9.6,0C399.4,314.2,400.2,307.4,399.7,302.2z"/></g><path fill="#291D29" d="M343.8,89.1c0,0,12.3-10.1,5.4-25.1c-7.8-16.8-22.9-15.2-26.8-15.2C313.2,48.8,343.8,89.1,343.8,89.1z"/><g><path fill="none" stroke="#291D29" stroke-miterlimit="10" d="M265.4,73c0,0-16.7-0.5-21.1-19.6c-3.5-15.1,6.9-31,22.3-33.8 c9.7-1.8,19.8,2,25.6,9.9c2.5,3.4,4.4,7.2,6,11c0.8,1.8,2.2,4.4,2.2,6.4l-29.6,26.8L265.4,73z"/><path fill="#291D29" d="M269.3,73c0,0-16.7-0.5-21.1-19.6c-3.5-15.1,6.9-31,22.3-33.8c9.7-1.8,19.8,2,25.6,9.9 c2.5,3.4,4.4,7.2,6,11c0.8,1.8,2.2,4.4,2.2,6.4l-29.6,26.8L269.3,73z"/><path fill="#D32F2F" d="M269.3,73c0,0,1.3,1.6,2.1-0.5c1.9-4.9,5.6-16.1,13.7-20.6c11.6-6.4,17-6.9,17-6.9s-2.3-0.7-5.1-0.7 c-4.2,0-10.2,1.1-16.8,5.6C269.2,57.3,269.3,73,269.3,73z"/></g><path fill="#291D29" d="M290,122.3c0,0-10.7-4.5-14.6-22.3c0,0-21.6-32.8,14.7-52.6c0,0,24.4-10.7,36.2,1.4c0.8,0.8,1.1,3,1.3,4.1 c1.8,6.9,1.6,14.5-1.5,21c-2.2,4.6-5.8,8.4-10,11.2c-2.8,1.9-5.8,3.3-8.9,4.5c-3.4,1.3-8.5,1.7-11.2,4.3c-1.5,1.5-1.3,3.9-0.8,5.8 c0.5,2,1.3,4.1,0.8,6.2c-0.1,0.3-0.3,0.7-0.6,0.8c-0.5,0.1-0.8-0.4-1-0.8c-1.2-2.4-1.9-4.8-2.7-7.3c-0.7-2-1.9-3.9-4.1-4.3 c-2.1-0.4-3.9,0.8-4.9,2.6c-2.3,5.6,2.7,13.6,5.2,14.8c0.2,0.1,0.3,2.4,1.4,5.1L290,122.3z"/><g opacity=".1"><path fill="#FFF" d="M312.4,58.4c0.9,1.5,1.5,3.3,1.5,5.2c0,1.9-0.7,3.8-1.7,5.4c-1,1.6-2.3,3-3.8,4.1c-1.5,1.1-3.1,2-4.7,2.7 c-3.2,1.5-6.5,2.4-9.3,4c-2.8,1.5-5.4,3.6-6.9,6.8c0-1.8,0.7-3.5,1.7-5.1c1-1.5,2.3-2.9,3.8-4c3-2.2,6.3-3.4,9.3-4.8 c1.5-0.7,3-1.4,4.3-2.3c1.3-0.9,2.5-1.9,3.5-3.1c1-1.2,1.8-2.5,2.2-4C312.7,61.9,312.6,60.2,312.4,58.4z"/></g><g opacity=".1"><path fill="#FFF" d="M323.8,56.1c1.2-1,2.6-1.7,4.3-2c1.6-0.2,3.4,0.1,4.9,0.8c3.1,1.3,5.3,4,7,6.5c1.7,2.6,2.9,5.3,4.6,7.5 c1.7,2.2,3.8,4.2,6.8,5.1c-1.5,0.2-3.2-0.1-4.6-0.8c-1.4-0.7-2.8-1.7-3.9-2.8c-2.3-2.3-3.8-5-5.4-7.5c-0.8-1.2-1.6-2.4-2.5-3.4 c-0.9-1.1-1.9-1.9-3.1-2.7c-1.1-0.7-2.4-1.2-3.8-1.4C326.8,55.4,325.3,55.7,323.8,56.1z"/></g><path fill="#93655F" d="M234.8,202.8c0,0,5.4,3.2,12.3,6.6c6.8,3.4,13.5,6.4,13.5,6.4l3.9-11.1l-27.4-9.3L234.8,202.8z"/><path fill="#F6B01F" d="M262.6,214.9c-4.4-2.4-25.7-11.5-28.3-18.5c0.3-10.8,7-33.9,17.8-35.7 C299.1,154.9,268.2,212.1,262.6,214.9z"/><g><path fill="#D32F2F" d="M343.1,92.5c0.7,0.1,1.4,0.1,2,0.2c0.8,0.1,1.6,0.2,2.4,0.3c0.5,0.1,1,0.1,1.6,0.3 c0.3,0.1,0.4,0.2,0.4,0.5c0,0.3,0,0.7,0,1c0.1,0.5,0,1,0,1.5c0,0.3-0.1,0.6-0.4,0.7c-0.4,0.2-0.7,0.5-0.8,0.9 c-0.3,0.8-0.6,1.7-0.8,2.6c-0.2,1-0.4,2.1-0.7,3.1c-0.2,0.9-0.5,1.8-1,2.6c-0.5,0.9-1.1,1.6-2,2c-1.2,0.6-2.5,0.8-3.9,0.9 c-1.3,0.1-2.6,0-3.9-0.2c-0.8-0.1-1.6-0.3-2.5-0.5c-1.1-0.3-2.1-0.9-3-1.8c-1.5-1.4-2.4-3.1-3.1-5c-0.4-1-0.7-1.9-1-2.9 c-0.2-0.6-0.5-1.1-1.2-1.2c-0.7-0.1-1.6,0-2,0.8c-0.3,0.6-0.5,1.3-0.7,2c-0.3,1-0.7,1.9-1.2,2.8c-0.5,0.9-0.9,1.8-1.5,2.6 c-1.3,1.6-3,2.5-4.9,3c-0.8,0.2-1.7,0.3-2.6,0.4c-1.3,0.1-2.6,0.1-4-0.1c-0.8-0.1-1.5-0.3-2.3-0.6c-0.8-0.3-1.5-0.9-2-1.6 c-0.6-0.8-0.9-1.7-1.2-2.6c-0.3-1-0.6-2-0.8-3c-0.2-1-0.5-2-0.8-3c-0.1-0.5-0.4-0.9-0.8-1.1c-0.4-0.2-0.5-0.5-0.5-0.9 c0-0.8,0-1.7,0.1-2.5c0-0.2,0.2-0.3,0.4-0.4c0.1,0,0.3-0.1,0.4-0.1c0.9-0.1,1.9-0.3,2.8-0.4c0.6-0.1,1.2-0.1,1.7-0.2 c1.7-0.1,3.4-0.2,5.1-0.3c1.2-0.1,2.4,0.1,3.6,0.1c0.3,0,0.6,0,0.9,0.1c0.8,0.1,1.6,0.2,2.4,0.3c0.8,0.1,1.6,0.3,2.4,0.5 c1,0.3,2,0.7,3,1c0.4,0.1,0.9,0.3,1.4,0.3c0.9,0.1,1.7,0,2.6-0.2c0.9-0.2,1.7-0.5,2.5-0.8c0.8-0.2,1.5-0.4,2.3-0.6 c0.5-0.1,0.9-0.1,1.4-0.2c0.9-0.2,1.8-0.2,2.7-0.3c1.1-0.1,2.2-0.1,3.5-0.1C340.4,92.3,341.7,92.3,343.1,92.5z M304.3,100.9 c0.1,1,0.3,2,0.6,3c0.2,0.7,0.4,1.3,0.9,1.9c0.5,0.7,1.1,1.1,1.9,1.3c1.4,0.5,2.9,0.5,4.3,0.4c0.6,0,1.1-0.1,1.7-0.2 c0.9-0.1,1.8-0.3,2.7-0.7c0.7-0.3,1.2-0.8,1.7-1.3c1.1-1.2,1.8-2.6,2.3-4.2c0.3-0.9,0.5-1.9,0.6-2.9c0-0.6,0-1.1-0.2-1.7 c-0.2-0.8-0.8-1.3-1.6-1.5c-0.8-0.3-1.6-0.5-2.4-0.6c-1.2-0.2-2.4-0.4-3.6-0.4c-0.5,0-0.9-0.1-1.4-0.1c-1,0.1-1.9,0.1-2.9,0.2 c-0.8,0.1-1.6,0.3-2.4,0.4c-0.4,0.1-0.9,0.3-1.3,0.5c-0.3,0.2-0.5,0.5-0.6,0.9c-0.3,0.6-0.4,1.1-0.4,1.8c0,0.5-0.1,0.9,0,1.4 C304.2,99.8,304.2,100.4,304.3,100.9z M341.7,107.5c1.2-0.2,2.1-0.9,2.6-2.1c0.4-0.9,0.7-1.8,0.8-2.7c0.2-1.4,0.5-2.8,0.4-4.2 c0-0.8-0.1-1.5-0.4-2.3c-0.3-0.7-0.9-1.2-1.7-1.4c-0.8-0.2-1.5-0.4-2.3-0.5c-1.4-0.2-2.8-0.3-4.2-0.3c-1.1,0-2.3,0.1-3.4,0.3 c-0.8,0.1-1.6,0.3-2.3,0.6c-0.7,0.2-1.3,0.6-1.7,1.2c-0.2,0.3-0.3,0.7-0.3,1c-0.1,0.8-0.1,1.6,0.1,2.5c0.4,2,1.2,3.8,2.4,5.5 c0.7,1,1.6,1.7,2.8,2c0.9,0.3,1.8,0.5,2.8,0.6c0.5,0.1,1.1,0,1.5,0.1C339.8,107.8,340.7,107.7,341.7,107.5z M346.9,94.9 c0.3,0.1,0.6,0,1,0C347.5,94.8,347.2,94.9,346.9,94.9z M302,94.9C302,94.9,302,94.9,302,94.9c0.3,0,0.6,0,0.9,0c0,0,0,0,0,0 C302.6,94.9,302.3,94.9,302,94.9z"/><polygon fill="#D32F2F" points="300.6,93.2 294.5,93.3 294.9,96.5 300.7,96.9"/></g><path fill="none" stroke="#FFF" stroke-width="1.368" stroke-miterlimit="10" d="M258.7,159.6c11.2,1,17.6,6.4,19.7,34 c0,0,1.4,40.5-1.4,78.9"/></g><g id="Man_1_2_"><g><g><linearGradient id="SVGID_2_" gradientUnits="userSpaceOnUse" x1="-447.415" y1="-141.928" x2="-470.822" y2="-88.731" gradientTransform="matrix(-0.7141 0.7001 0.7001 0.7141 -65.2177 631.9915)"><stop offset="0" stop-color="#C48661"/><stop offset="1" stop-color="#E0AA88"/></linearGradient><path fill="url(#SVGID_2_)" d="M198.9,267.8c2.3,0.7,4.7,1.4,7.1,2.1c11,3.3,20.9,10.5,32.6,11.6c3.2-6.1-0.2-13.5-3.6-19.5 c-8.9-15.8-17.7-31.5-25.7-47.8l-4.9-10.1l-42.6,19.1l4.7,7.9l0.4,0.6c0,0,14,23.6,14,23.6C185.2,262.8,191.7,265.6,198.9,267.8 z"/><path fill="#EAB7B7" d="M147.6,172.4c0.3-4.7,1-9.3,2.5-13.7c1.9-5.7,5.3-11,10-14.7c1.9-1.5,4.2-2.7,6.6-2.9 c2.2-0.1,4.5,0.8,6.1,2.4c1.8,1.8,2.7,2.8,4.8,4.2c4.2,2.7,7.6,6.3,10.5,10.3c6,8.3,9.5,18.1,12.8,27.8 c2.6,7.6,5.1,15.2,7.6,22.8c0.5,1.4,0.9,2.9,0.5,4.3c-0.3,1-0.9,1.8-1.5,2.6c-5.3,6.2-13.4,9.4-21.5,10.4 c-4.3,0.5-8.6,0.5-12.9,0.2c-3-0.2-8.8-2-11.5-0.8c-3.4-5.7-6.4-11.6-8.9-17.7c-2.5-6.1-4-11.9-4.9-18.5 c-0.6-4.4-0.3-8.2-0.2-12.6C147.5,175.1,147.6,173.7,147.6,172.4z"/><path fill="#ECBBB6" d="M164,232.2c0,0-10.4-14.2-15-35.5l59.4,11.9l4.7,12.9C213.1,221.4,179.6,238.9,164,232.2z"/><path fill="#EEE" d="M224.1,239.1c0,0-24.8,14-46.9,19.6c-5.1-3.9-9.2-10.2-10.2-17.1c0,0,12.4-15,47.1-23.7L224.1,239.1z"/></g><g><path fill="#EAB7B7" d="M75.9,313.7c4.3,2.3,4.6,9.3,6,13.5c1.6,4.8,4,9.5,8.9,11.6c4.3,1.8,14.9-1,19.8-1.3 c7.1-0.4,14.1-0.9,21.2-1.3c10.9-0.7,21.8-1.4,32.7-2c4.5-0.3,10,0.3,14.1-1.8c5.6-2.9,8.9-10.4,9.9-16.9 c1.2-7.6,0-15.4-0.8-23.1c-1.6-15.6-1.9-31.3-1.5-47c0.6-24.4,8.9-48,1.8-72.4c-2.4-8.4-5.9-20.2-11.8-26.8 c-1.2-1.3-2.6-2.5-3.9-3.6c-6.5-5.2-14.1-11.1-21.7-14.4c-8.4-3.7-18.9-5.1-27.8-7.4l-27.5,23.6c-7.3,6.3-12.3,14.5-15.4,23.5 c-3.5,10.1-0.8,16.3,1.3,26.6c3.5,16.9,4.4,34.3,2.8,51.5c-0.4,4.5-1,9.1-1.8,13.5c-1.3,7.3-3,14.5-4.3,21.8 c-0.6,3.3-0.7,6.6-1.3,9.9c-0.9,5.8-1.3,8.7-1.8,14.8C74.7,305.9,74.5,313,75.9,313.7z"/></g><path opacity=".1" d="M120.5,314.2l-2.7-30.3l-15.1-93.8l-23,53.3c-0.4,4.5,3,15.4,2.3,19.9c-1.8,10.2-3.3,12.2-4.4,22.5 L120.5,314.2z"/><g><linearGradient id="SVGID_3_" gradientUnits="userSpaceOnUse" x1="617.724" y1="572.895" x2="654.699" y2="572.895" gradientTransform="matrix(-1 0 0 1 783.3653 0)"><stop offset="0" stop-color="#C48661"/><stop offset="1" stop-color="#E0AA88"/></linearGradient><path fill="url(#SVGID_3_)" d="M128.7,587.8l1.5-36l26.2,1.7l-0.6,15c-0.2,4.5,1.4,9,4.3,12.5l5.6,6.6l-30.3,6.4L128.7,587.8z"/><polygon fill="#2F3666" points="118.4,315.8 118.4,315.9 118.5,316.7 119,320.1 126.4,336.7 132.1,374.7 133.4,404.7 134.9,439.2 129.9,531.8 128,567.3 129.5,567.4 155.8,568 157.1,568 174.6,468.2 177.3,452.9 177.3,452.9 179.3,441.4 188.5,320.1 188.6,318.6 187.8,318.6 184,318.4 160.3,317.5 160.1,317.5 159.7,317.4 158,317.4 154.9,317.2 144,316.8 142.1,316.7 141.5,316.7 141,316.7 139.5,316.6 137.2,316.5 135.3,316.5 130.7,316.3 127,316.1"/><polygon opacity=".2" points="128.6,555.9 141.7,437.5 142.5,361.3 132.4,379.3 133.4,404.7 134.9,439.2"/><path fill="#492205" d="M160,582.5c1.2,2.9,2.6,6.1,5.2,8.1c1.1,0.9,2.4,1.5,3.7,2c1.4,0.7,2.8,1.2,4.2,1.9 c0.7,0.3,1.5,0.7,2.3,0.7c0.6,0,1.1,0,1.7-0.1c1.9-0.3,6-0.2,7.7-1.6c-5.6-1.9-10.3-3.9-11.9-5l-12.5-9.5 c-0.1,0.1-0.2,0.1-0.3,0.2c-0.1,0-0.1,0.1-0.2,0.1c-0.1,0.1-0.1,0.1-0.2,0.2C159.3,580.6,159.6,581.7,160,582.5z"/><linearGradient id="SVGID_4_" gradientUnits="userSpaceOnUse" x1="663.93" y1="574.143" x2="698.977" y2="574.143" gradientTransform="matrix(-1 0 0 1 783.3653 0)"><stop offset="0" stop-color="#C48661"/><stop offset="1" stop-color="#E0AA88"/></linearGradient><path fill="url(#SVGID_4_)" d="M84.4,589.3l1.5-36l26.2,1.7c-0.1,3.1-0.2,6.1-0.3,9.3c-0.2,5.3-1,10.7-1.1,16.1 c0,2.2,0,4.4,0.9,6.4c1.5,2.7,5.1,4.2,7.9,3.1c-6,1.4-12,2.7-18.1,3.3c-2.2,0.2-4.4,0.3-6.6,0.8c-1,0.2-2.3,1-3.3,1 c-0.9,0-1-0.1-1.7-0.8C87.9,592.6,86.2,590.9,84.4,589.3z"/><polygon fill="#2F3666" points="76.2,316.9 83.3,571 114.3,570.8 121.5,471.4 122.4,456.1 140.6,316.8"/><path opacity=".4" fill="none" stroke="#DDD" stroke-miterlimit="10" d="M109.7,335.4c-3.5,9.5-13.7,16-23.8,15.2"/></g><g><path opacity=".2" d="M83,559.2c0,0,6.1,1.2,17.2-0.9s14.7-2.6,14.7-2.6s-0.4,8.7-0.4,9.2c0,0.5-31.3,0-31.3,0L83,559.2z"/><path fill="#2F3666" d="M114.3,570.8c0.6-1.4,0.6-8.4,0.6-8.4s-30.1-1.9-31.8-1c-1.7,0.9,0.3,9.6,0.3,9.6 S113.7,572.2,114.3,570.8z"/></g><g><path opacity=".2" d="M128,557.6c0,0,7.6,0.7,16.4-0.9c8.8-1.6,15-2.2,15-2.2s-1.1,8.9-1.6,8.9c-0.4,0-29.7,0-29.7,0L128,557.6 z"/><path fill="#2F3666" d="M127.9,559.7c0,0,29.4-1.7,30.7,0c1.3,1.7-1.5,8.3-1.5,8.3s-27.8-0.5-29.2-0.7S127.9,559.7,127.9,559.7z"/></g><path opacity=".4" fill="none" stroke="#DDD" stroke-miterlimit="10" d="M142.2,320.1c0,0,4.6,30.7,1.9,37 c-2.1,4.9-5.4,6-5.4,6"/><g><polygon fill="#44230A" points="190.6,314 76.1,314 75.2,323.8 189.6,323.8"/><rect x="90.2" y="314.1" transform="matrix(-1 -4.442903e-11 4.442903e-11 -1 182.478 640.4169)" opacity=".6" fill="#DDD" width="2.1" height="12.2"/><rect x="122.8" y="314.1" transform="matrix(-1 -4.442903e-11 4.442903e-11 -1 247.7662 640.4169)" opacity=".6" fill="#DDD" width="2.1" height="12.2"/><rect x="183.3" y="314.1" transform="matrix(-1 -4.442903e-11 4.442903e-11 -1 368.7624 640.4169)" opacity=".6" fill="#DDD" width="2.1" height="12.2"/><g><path fill="#513B26" d="M141.5,309.1v8.6c0,0.8,0.2,1.7,0.7,2.4c0.8,1.3,2.2,2.3,3.8,2.3h9.9c1.6,0,3-0.9,3.8-2.3 c0.1-0.1,0.1-0.3,0.2-0.4c0.3-0.6,0.4-1.3,0.4-2v-8.6c0-1.2-0.4-2.3-1.2-3.2c-0.8-0.9-1.9-1.5-3.2-1.5H146 c-1.3,0-2.4,0.6-3.2,1.5c0,0-0.1,0.1-0.1,0.1c-0.3,0.4-0.6,0.9-0.8,1.4C141.7,307.9,141.5,308.5,141.5,309.1z M144,309.1 c0-0.1,0-0.3,0-0.4c0.2-1,1-1.8,2-1.8h9.9c1.1,0,2,1,2,2.1v8.6c0,0.4-0.1,0.8-0.3,1.1c-0.4,0.6-1,1.1-1.8,1.1h-9.9 c-1.1,0-2-1-2-2.2V309.1z"/></g><g><path fill="#513B26" d="M151.1,314.5h1.5c0.9,0,1.7-0.8,1.7-1.7l0,0c0-0.9-0.8-1.7-1.7-1.7h-1.5c-0.9,0-1.7,0.8-1.7,1.7l0,0 C149.4,313.7,150.2,314.5,151.1,314.5z"/><path fill="#FFC400" d="M151.4,311.4c-0.8,0-1.4,0.6-1.4,1.4l0,0c0,0.8,0.6,1.4,1.4,1.4h7.3c0.8,0,1.4-0.6,1.4-1.4l0,0 c0-0.8-0.6-1.4-1.4-1.4H151.4z"/></g></g><path fill="none" stroke="#FFC400" stroke-width="2.143" stroke-miterlimit="10" d="M146.9,321h8.2c2.6,0,4.8-2.2,4.8-4.8v-6.4 c0-2.6-2.2-4.8-4.8-4.8h-8.2c-2.6,0-4.8,2.2-4.8,4.8v6.4C142,318.9,144.2,321,146.9,321z"/><g><path fill="#E0AA88" d="M241.6,274.4c0,0,8.1,2.7,7.2,7.1s-12-1.7-12-1.7L241.6,274.4z"/><path fill="#E0AA88" d="M246.2,259.4l0.6,2c0.2,0.7,0.1,1.4-0.2,2.1l-3.1,6.4l-0.7,6.6l-3.9-1.4l1-8.9l5.6-7.1 C245.7,259,246.1,259.1,246.2,259.4z"/><rect x="112" y="232.2" fill="#D68A56" width="86" height="87.4"/><path opacity=".2" fill="#7A4826" d="M112,254.8v24c2,2.4,4.2,4.6,6.4,6.9c8.8,9,17.5,17.9,27,26c3.3,2.8,6.8,5.6,10.5,7.9 c1.4,0.8,2.8,1.6,4.2,2.4c1.7,0.8,3.9,1.6,5.5,0.5c-1.6-0.8-6.1-23.4-7.6-24.5c-0.2-0.2,14.6-9.9,14.6-9.9s-12.4,2-14.6,2.3 c-3.7,0.6-7.1,2.9-9.6,1.8c-2.7-1.2-28.2-23.8-34.1-33.2C113.4,257.7,112.6,256.3,112,254.8z"/><rect x="177" y="232.2" fill="#FEC582" width="66.5" height="87.4"/><rect x="205.1" y="231.6" transform="matrix(-1 -4.490021e-11 4.490021e-11 -1 427.6699 484.1265)" fill="#FEFFFF" width="17.5" height="21"/><rect x="138.2" y="232.2" transform="matrix(-1 -4.489044e-11 4.489044e-11 -1 289.1482 482.3804)" fill="#FDDAB4" width="12.8" height="18"/></g><path fill="#D1A26B" d="M227.4,298.5c0,0,2.7,3.8,8.3,3.1c5.6-0.7,7.7-0.6,7.7-0.6l-0.2-4.5L227.4,298.5z"/><path fill="#E0AA88" d="M236.6,299.5c0.7,0.1,1.4,0.1,2,0c2-0.3,6.5-1.1,7.6-1.6c1.7-0.8,1.1-2.7,1.1-3.9c0-1.3,1.9-2.8,2-4.7 c0.1-1.9-0.7-2.7-0.7-3.8c0-1.1,1.6-2.1,1.6-3.2c0-1.1-1.6-2.5-3-2.7c-1.4-0.1-11-2.2-11.5-2.2c-2-0.3-9.1-2-12.5-2.9 c-0.8-0.2-1.7,0.2-2.1,0.9l0,0c-0.5,1-0.1,2.2,1,2.6c3.7,1.3,11.3,4,11.6,4c0.4,0,8.2,1.4,8.2,1.4l-9,0.3l-11.3-3.4 c-1.2-0.4-2.5,0.4-2.8,1.7l0,0c-0.2,1.1,0.5,2.2,1.6,2.5c3.7,1,9.4,3.3,11.3,3.6c2.3,0.4,9.4,0.6,9.4,0.6l-9,1.2l-9.8-1 c-0.9-0.1-1.7,0.5-1.8,1.4l0,0c-0.2,0.9,0.4,1.7,1.2,1.9l7,1.8c1.8,0.5,3.7,0.6,5.6,0.5l7.6-0.5l-7.5,1.7l-6.2-0.5 c-0.9-0.1-1.6,0.5-1.8,1.4l0,0c-0.2,0.9,0.4,1.7,1.2,1.9L236.6,299.5z"/><path fill="#EAB7B7" d="M85,157.2l-24.8,46.9c-4.2,8-4.5,17.6-0.7,25.8l20.2,43.4l26.3-12.8l-14.5-35.1l23.8-43.9L85,157.2z"/><g><path fill="#E0AA88" d="M147.4,294c0,0,3.4,3.4,3.7,2.5s7.1-4.5,7.1-4.5l17.3-4.5l0,0.9c-0.1,2.4-1.5,4.5-3.6,5.5l-9.3,3.1 l5.9,6.1l18,2.6c1.7,0.4,3,1.8,3.2,3.5l0.1,0.6l-15.4-0.6l-10.8-1.8l14.2,2.9l10.5,0.3c1.8,0.1,3.2,1.5,3.2,3.2 c0,0.1,0,0.1,0,0.1c-0.2,0-12.9,0.7-12.9,0.7l-13.8-0.9l-19.4-10.3L147.4,294z"/><path fill="#E0AA88" d="M142.6,311.4l5.5,2c0,0,8.4,8,11.4,8.6c1.4,0.3,7.4,1.3,13.2,1.2c6.3-0.1,12.4-1.2,12.4-1.2l0,0 c0-1.4-1.1-2.5-2.5-2.5l-8.9,0l-8.1-1l7.7,0.1l15.2-0.5l0,0c0-1.8-1.5-3.3-3.3-3.2l-11.9,0.2l-7.7-1.3l-17.4-12.3L142.6,311.4z"/></g><g><polygon fill="none" stroke="#C69E8D" stroke-width=".75" stroke-miterlimit="10" stroke-dasharray="2,2" points="118.3,202.8 131,205.3 141.7,201.3 139.8,181.8 116.6,182.9"/><g><polygon fill="#E8E9EA" stroke="#E8E9EA" stroke-miterlimit="10" points="116.7,184.1 139.8,182.7 139.7,179.5 116.3,180.4"/></g></g></g><path fill="#E0AA88" d="M174.6,468.2l2.7-15.3c-4.9,0.1-22.5,0.7-27.5,4.2C145,460.5,166.7,466.3,174.6,468.2z"/><path fill="#E0AA88" d="M121.5,471.4l0.9-15.2c-5.5,0.1-22.1,0.8-26.9,4.2C90.8,463.6,113,469.3,121.5,471.4z"/><g><g><path fill="#3B3E51" d="M212,601.6c-18.1,10.5-43.9,7.9-64,6.5c-6.5-0.5-24.4-0.5-27.8-7.2c-3.3-6.7,2.6-19.6,8.3-23.4 c1.9,4.1,3.2,7.2,8.3,7.5c4.2,0.3,8.2-1.1,10-4.6c1.6-3,2-7.3,6.7-7.4c3.6-0.1,6.7,3.9,9.2,6.1c7.8,6.5,15.8,11.6,25.8,13.9 C193.6,594.1,214.9,592.6,212,601.6z"/><path fill="#2B2D3A" d="M212,601.6c-5.9,3.4-12.8,5.3-20.1,6.2c-0.3-1.6-0.6-3-1.5-4.6c-0.9-1.5-2.4-2.6-4.2-3.2 c-0.6-0.2-1.4-0.5-1.3-1.1c6.2,0.7,12.6,0.3,18.7-1.1c0.7-0.2,1.4-0.4,1.7-0.9c0.3-0.6,0.2-1.1-0.1-1.5 c-0.2-0.3-0.5-0.5-0.9-0.7c1.7,0.1,3.4,0.2,4.8,0.7C211.4,596.3,212.7,599.5,212,601.6z"/><path fill="#B7B7B7" d="M213.4,602.8c-0.8,2.2-4,3.5-4,3.5c-16,8.7-57.5,6.7-57.5,6.7c-11.5,0.2-23.1,0.4-34.3-2 c-1-0.2-2.1-0.5-2.6-1.3c-0.2-0.4-0.2-0.8-0.2-1.2c0-0.2,0.1-0.5,0.1-0.7c0.4-2.1,1.1-4.1,2.1-6c0.6-1.3,1.9-2.7,3.5-2.3 l30.1,3.3c0,0,34.5,4.6,49.1,2c8.9-1.6,11.6-3.5,12.3-4.7c0,0,0,0,0-0.1c0.4-0.7,0.1-1.1,0.1-1.2 C213.6,600.4,213.8,601.7,213.4,602.8z"/><path display="none" fill="#1B9DFF" d="M156.6,573.9c-2.3,2.8-3.9,3-5.6,6.4c-1.9,3.8-4.1,5.1-8.2,6.2 c-3.2,0.8-7.5,1.9-10.6,0.2c-3-1.6-7-7-3.6-9.2c1.5,3.2,2.4,6.1,6.1,7.2c2.8,0.8,8.2,0.2,10.5-1.7 C148.2,580.4,149.5,569.1,156.6,573.9z"/><path display="none" fill="#2B2D3A" d="M134.3,591.5c-0.3,0.3-0.8,0.4-1.3,0.4c-1.8,0.1-3.6-0.5-5.4-0.8c-1.7-0.2-3.4,0-4.9,0.5 c-0.9,0.3-1.8,1.1-2.7,1.6c0.3-1.9,0.8-3.7,1.5-5.7c0.9-2.5,2.3-5.4,4.3-7.7c0.3,0.9,0.6,1.9,0.8,2.8c0.4,1.2,0.7,2.5,1.6,3.5 c1,1.2,2.5,1.9,4,2.5c0.7,0.3,1.4,0.5,1.9,1C134.7,590.3,134.8,591.1,134.3,591.5z"/><path fill="none" stroke="#FFF" stroke-width="1.26" stroke-linecap="round" stroke-linejoin="round" stroke-miterlimit="10" d="M164.3,586.2c1.9-0.5,3.8-1.1,5.6-1.9"/><path fill="none" stroke="#FFF" stroke-width="1.26" stroke-linecap="round" stroke-linejoin="round" stroke-miterlimit="10" d="M169.6,589.4c0.2-1.7,0.3-3.4,0.2-5.2"/><path fill="#1B9DFF" d="M159.8,582.7c0.2-1.5-1.2-3.1-2.9-2.8c-0.8,0.1-1.4,0.6-2,1.1c-1.5,1.4-2.8,2.9-3.9,4.6 c-0.8,1.2-0.6,1.3,0.8,1.9c1.2,0.5,2.4,0.9,3.6,1.4c4.7,1.7,9.5,3.1,14.4,4.2c0.5,0.1,1.1,0.2,1.6-0.1c0.9-0.6,1.7-2,2.1-2.9 c0.1-0.2,0.2-0.5,0.1-0.7c-0.1-0.2-0.2-0.3-0.4-0.4c-1.2-0.9-2.7-1.9-4.2-1.4c-0.8,0.3-1.2,1-1.9,1.5c-0.7,0.5-1.9,0.6-2.2-0.1 c1.2-0.8,2-1.8,2.4-3c-1.7,0-2.7-2.2-4.5-2.1c-0.6,0.1-1.1,0.4-1.5,0.7c-1.3,0.9-2.6,1.9-4,2.7 C155.8,586.2,159.6,584.2,159.8,582.7z"/><path fill="none" stroke="#FFF" stroke-width="1.26" stroke-linecap="round" stroke-linejoin="round" stroke-miterlimit="10" d="M161,576.8c-1,1.9-2.1,3.8-3.1,5.7c1.9-1.1,4.4-1.5,6.6-1c-0.1,1.7-0.2,3.3-0.3,5"/><path fill="none" stroke="#FFF" stroke-width="1.26" stroke-linecap="round" stroke-linejoin="round" stroke-miterlimit="10" d="M173.8,586.4c-1,1.3-2,2.5-3,3.8"/></g><path display="none" fill="#F54133" d="M137.2,597.8c0.9,1.1,2.6,1.4,4.1,1.5c6.2,0.7,12.4,1.3,18.5,2c-0.7,1.1-1.1,2.4-1,3.7 c0,0.2,0,0.4-0.1,0.5c-0.2,0.2-0.5,0.2-0.8,0.1c-4.9-0.7-9.9-1.4-14.9-2c-1.2-0.2-2.5-0.3-3.7-0.4c-0.8-0.1-3,0-3.6-0.4 c-0.7-0.5,0-1.4,0.3-2.1C136.1,600.3,137.4,598.1,137.2,597.8z"/></g><g><g><path fill="#D3D3D3" d="M81.2,606.4v3.3c0,1.4,1.1,2.5,2.5,2.5h45.9c2,0,3.6-1.6,3.6-3.6c0-0.5,0-1.1,0-1.6 c0-3.1-0.2-6.3-1.5-9.2c-0.2-0.5-0.6-1.1-1.2-1c-0.3,0-0.5,0.2-0.7,0.4c-3.3,3-7.3,7-12,7.2c-4.5,0.2-9.6-0.5-14.2-0.5H83.7 C82.4,603.9,81.2,605,81.2,606.4z"/><g><path fill="#2B2D3A" d="M79.7,598.8c0.4,5.7,2.9,7,8.3,7.3c8,0.4,16.2,0.7,24.2,0.4c4.6-0.2,18.4-0.1,20.5-5.7 c1.6-4.3-8.7-11.5-11.2-14.1c-5.3-5.7-7.2-9.6-15.4-7.1c-4.8,1.5-8.5,1.9-13.4,1.9c-1.7,0-3.7,0.4-5.4,0.2 c-1.4-0.2-2.7-1.8-3.6-1.6C79,580.8,79.5,595.3,79.7,598.8z"/></g><path fill="#3B3E51" d="M79.7,598.8c0.1,1.9,0.1,5.9,2.5,6.5c2.4,0.6,3-1.9,4.4-3.2c5-5,13.5-2.7,20-2.6 c4.5,0.1,16.9,1.6,20.1-2.9c3-4.4-6.7-12-9.6-14.9c-5.3-5.5-9.3-1.8-15.7-0.4c-3.5,0.8-6.8,0-10.3,0.1c-1.8,0-3.5,0.7-5.3,0.3 c-1.7-0.4,0.2-1.8-2.1-1.5C79.1,580.6,79.5,595.6,79.7,598.8z"/><path fill="#2B2D3A" d="M122.4,593.7c0.2,0.7,0.3,1.6-0.3,2.1c-0.3,0.2-0.7,0.3-1,0.4c-2.7,0.4-5.5,0.9-8.1,0.1 c-1.4-0.4-2.7-1.2-4-2c-3-1.8-5.9-3.7-8.9-5.5c-2.8-1.7-5.7-3.6-7.4-6.4c-0.3-0.6-0.6-1.3-0.5-1.9c0.3-1.4,2.1-1.7,3.5-1.8 c3.5-0.1,7-0.2,10.6-0.3c3.7,0,3.7,0.4,6.1,3.1C116,585.3,120.7,588.4,122.4,593.7z"/></g><path fill="#1B9DFF" d="M109.5,598.7c-0.2,0.1-0.4,0.1-0.6,0.1c-0.4,0.1-0.7,0.1-1.1,0.1c-0.6-0.1-1.2-0.3-1.7-0.6 c-5.2-2.8-9.9-6.6-14.7-10c-0.6-0.4-1.2-0.9-1.7-1.5c-0.5-0.7-0.7-1.7-0.3-2.4c0.4-0.8,1.5-1.2,2.4-1.2c0.9,0,1.8,0.4,2.5,1 c1.5,1.3,2,3.7,3.8,4.7c1.3,0.7,3,0.5,4,1.6c0.7,0.8,0.8,2.2,1.7,2.8c0.4,0.3,1,0.3,1.5,0.4c1.6,0.2,8.4,2,5.3,4.6 C110.2,598.5,109.8,598.6,109.5,598.7z"/><path fill="none" stroke="#FFF" stroke-width="1.202" stroke-linecap="round" stroke-linejoin="round" stroke-miterlimit="10" d="M123.7,593.1c-6.1-1.2-16.4-3.2-22.6-2.5c4.2-2.4,11-5,15.4-6.9c-8-0.8-16.4-1.6-23.9,1.4c8.2,0.8,16.5,1.5,24.7,2.3 c1.2,0.1,2.4,0.2,3.6,0.5c-3.4,0.8-6.4,2.8-9.3,4.8c-1.2,0.8-2.5,1.9-2.6,3.3"/><path display="none" fill="#1B9DFF" d="M81.8,582.3c0.4,5,12.3-1.1,13.9-1.7c3.1-1.2,6.3-0.7,9.5-0.6c0.6,0,8.4,0,7.2-1.6 c-0.7-1.3-10-0.3-11.3-0.2c-4.3,0.3-7.3,2.7-11.4,3.4c-1.1,0.2-2.5,0.3-3.6,0.1c-0.4-0.1-1.5-1.3-1.3-1.3 C84,580.3,81.5,579.8,81.8,582.3z"/></g><g opacity=".1"><path fill="#FFF" d="M186.6,29.9c-2.6,2.3-5.9,3.5-9.2,4.3c-3.4,0.7-6.8,0.9-10.2,0.9c-3.4,0-6.8-0.3-10.2-0.5 c-3.4-0.2-6.8-0.4-10.1-0.3c-3.4,0-6.7,0.2-10,0.9c-3.2,0.7-6.3,2-8.7,4.3c-2.3,2.3-3.7,5.5-4.2,8.8c-0.6,3.3-0.3,6.7-0.2,10.1 c-0.5-3.4-0.8-6.8-0.5-10.2c0.4-3.4,1.7-6.8,4.1-9.4c2.5-2.6,5.8-4,9.2-4.8c3.4-0.8,6.8-1,10.2-1.1c6.8,0,13.6,0.8,20.3,1.1 c3.4,0.1,6.8,0,10.1-0.5C180.6,33,183.9,31.9,186.6,29.9z"/></g><g><path fill="#E0AA88" d="M76,261.1c-3,1-0.6,4.2,0.8,7c10.3,19.2,26,21.6,43.8,33.3c5.2,3.4,18.9,9.1,18.9,9.1s4.7,1.4,6.2,2.1 l4.3-16c-10.1-10.3-20.6-18.1-30.7-28.4c-6.4-6.5-17.7-13.2-24.2-19.6C90.1,243.7,87.6,257.1,76,261.1z"/></g><path fill="#C18B6F" d="M109,263.6c0,0-5.4,9.2-14.4,15.2c-9.2,6.2-9.9,3.7-9.9,3.7l-4.6-6.2l23.8-17.6L109,263.6z"/><path fill="#EEE" d="M110.3,261.3c0,0-15.1,13.4-29.9,18.5c-4.3-3.8-7.5-10.9-9.5-17.6c0,0,6.1-14.4,29.2-22.5L110.3,261.3z"/><g><polygon fill="#E0AA88" points="126.2,130.7 162,153.7 166.8,136.2 167.9,131.9 168.9,116.6 162.4,115.2 158.6,112.1 133.8,91.9"/><path fill="#C18B6F" d="M144.1,110.5c0,0,8.2,16.7,24,18.4l0.8-12.3l-6.5-1.4l-3.8-3.1L144.1,110.5z"/><path fill="#E0AA88" d="M130,105.7c5.5,1.8,11.5,3.1,15.6,6.8c4.1,3.7,9.2,5.8,14.7,6.5c5.5,0.7,13.9,1.9,19.2-0.4 c11.7-5.1,8.4-25.1,10.4-35.2c1.8-9.4,3.7-16.8,1.9-26.2c-1.5-8.2-1.8-13.1-11.5-12.5c-10.5,0.6-20.8,3.5-31.4,4.2 c-7.1,0.5-15.3,0.2-22.3,1.8c-4.3,1-1.6-0.5-3.4,2.4c-0.9,1.6-1.3,3.9-1.9,5.6c-1.6,4.6-2,5.8-0.8,10.4 C123.7,81.4,126.9,93.5,130,105.7z"/><path fill="#492E1E" d="M114.8,50.5c0.9-18,20.2-25.5,35.8-25.6c9.5,0,18.9,2.2,28.3,3.4c5.3,0.6,15.8-2.4,18,3.4 c2.6,6.9-0.1,16.4-5.6,21.1c-6,5.1-12.9,3.8-20,2.5c-5.3-0.9-15.1-3.8-19.7,0.5c-5,4.7,1.9,12.4-1.1,17.3 c-2.5,4.1-16.1,0-20.2-0.9C120.5,70.1,114.2,60.1,114.8,50.5z"/><path fill="#492E1E" d="M150.4,74.3c-0.3,1.9-2,2.9-2.6,4.7c-0.8,2.2-0.1,6.6-2.3,7.9c-8.3,5.1-7.4-9.6-14.2-6.9 c-2.5,1-2.5,3.5-2.4,6c0.2,4.4,4.3,4.5,5.2,7.4c1.6,5.3-3.6,13.8-3.8,16.4c-1.8-15.5-20.2-32.2-11.1-47.9c-0.8,1.4,4.9,6,5.6,6.5 c4.5,3,8.9,2.8,13.8,1.3C145.8,67.5,152.1,63.2,150.4,74.3z"/><g><ellipse transform="matrix(0.9956 -9.402706e-02 9.402706e-02 0.9956 -6.8129 16.5631)" fill="#252525" cx="172.4" cy="80.6" rx="1.7" ry="2.3"/><ellipse transform="matrix(0.9956 -9.402706e-02 9.402706e-02 0.9956 -6.6479 17.8099)" fill="#252525" cx="185.7" cy="79.5" rx="1.7" ry="2.3"/><g><path fill="#492E1E" d="M161.2,74.6c0.8-1.2,1.9-2.1,3.1-2.7c1.2-0.7,2.6-1.1,3.9-1.4c1.4-0.2,2.8-0.3,4.2-0.1 c1.4,0.2,2.7,0.6,3.9,1.4c-1.4,0-2.7,0-4,0.1c-1.3,0.1-2.5,0.2-3.8,0.5c-1.2,0.2-2.5,0.5-3.7,0.9 C163.7,73.6,162.5,74.1,161.2,74.6z"/></g><g><path fill="#492E1E" d="M181.9,71.2c0.5-0.7,1.2-1.2,1.9-1.6c0.8-0.3,1.6-0.5,2.5-0.5c1.7,0,3.5,0.7,4.4,2.2 c-0.9-0.1-1.6-0.2-2.3-0.2c-0.7-0.1-1.4-0.1-2.1-0.1c-0.7,0-1.4,0-2.1,0.1C183.5,71.1,182.8,71.2,181.9,71.2z"/></g></g><path fill="#FFF" d="M175,105.7h4.5c2.1,0,3.8-1.7,3.8-3.8v-2.8l-12.1,0l0,2.8C171.2,104,172.9,105.7,175,105.7z"/><path opacity=".4" fill="none" stroke="#2D1727" stroke-linecap="round" stroke-miterlimit="10" d="M179.5,75.5 c2.3,5.4,5.2,9.9,6.6,15.4c0.1,0.3,0.1,0.7,0,1c-0.2,0.3-0.5,0.5-0.9,0.6c-1.9,0.5-4,0.5-6-0.1"/><path fill="#69422B" d="M177.3,50.8c2.1,0,4-0.2,5.8-0.5c7.9-1.7,9.1-14.6,9.1-14.6s-2.4,10.1-9.8,11.7 c-8.3,1.8-24.8,0.5-24.8,0.5C158.1,48,168.6,50.8,177.3,50.8z"/><g><path fill="#69422B" d="M123.6,65.1c0,0-1.8-7.2-1.3-15.1c0.4-7.7,4.5-13.1,4.5-13.1s-6.9,3.7-7.4,12.9 C118.8,58.8,123.6,65.1,123.6,65.1z"/></g></g><path fill="#EEE" d="M129.2,113.8h-1c-0.8-0.7,1.5-0.9,0.6-0.2c0,0-10.3,6.9-9,10.6l15.8,35.9l19.1-11.1 C154.8,148.9,141.8,138.7,129.2,113.8z"/><path fill="#EEE" d="M167.1,160.8l-12.7-11.7l7.3-5.9c2.6-2.1,4.5-4.9,5.5-8.2l0.7-2.2l1.3,1.1l2.5,6.4 c0.8,2.1,0.9,4.4,0.1,6.5l-1.5,4.2L167.1,160.8z"/><g><path fill="#E0AA88" d="M139.1,83.2c1.8,4.8,0.8,10.2-2,11.2c-2.8,1-7-2.4-8.8-7.2c-1.8-4.8-0.4-9.2,2.4-10.2 S137.3,78.4,139.1,83.2z"/><path opacity=".2" fill="#53113F" d="M130.3,81.7c0.4-0.9,1.3-1.7,2.4-1.6c0.5,0,0.9,0.2,1.3,0.4c0.7,0.3,1.8,1.1,1.7,2 c-0.3-0.1-0.7-0.4-1-0.6c-0.3-0.2-0.6-0.4-0.9-0.5c-0.3-0.1-0.7,0-0.9,0.2c-0.1,0.1-0.2,0.3-0.3,0.5c-0.1,0.3-0.3,0.6-0.2,1 c0,1.4,1.9,1.9,1.2,3.4c-0.1,0.3-0.4,0.6-0.7,0.7c-0.3,0.1-0.6,0-0.9-0.1C130.2,86.4,129.5,83.4,130.3,81.7z"/></g></g><g id="Cleaner_1_"><linearGradient id="SVGID_5_" gradientUnits="userSpaceOnUse" x1="1263.901" y1="55.008" x2="1291.502" y2="104.295" gradientTransform="matrix(-1 0 0 1 1882.1691 0)"><stop offset=".358" stop-color="#151214"/><stop offset="1" stop-color="#291D29"/></linearGradient><path fill="url(#SVGID_5_)" d="M573.5,40.3c0,0,34.6,8.7,27.9,54.8c-6.1,42.6,23.9,42.1,23.9,42.1s0.6,17.2-31.3,7.6 c-18.4-5.6-74.2,15-75.5-8.8c0,0,28,5.5,32.8-16.9C556.7,93.9,573.5,40.3,573.5,40.3z"/><g><g><path fill="#DFAA88" d="M472.2,242.3L472.2,242.3c-5.5-4.9-6.1-13.3-1.3-19l55.5-64.7c6.9-8.1,19.3-8.6,26.9-1.1l0,0 c7.4,7.3,7.2,19.3-0.5,26.4l-62.4,58C485.3,246.8,477.5,246.9,472.2,242.3z"/><g><g><path fill="#DFAA88" d="M438.1,162.6l-11-18.9c-2.5-3.1-5.1-6.1-7.6-9.2c-1.2-1.4-7-10.7-9.6-9.6c-0.7,0.3-0.5,1.4-0.1,2 c3.3,6.5,7,12.9,10.9,19.1c-3.3-5.2-7.2-10-10.8-15c-0.8-1.1-1.6-2-2.7-2.9c-0.4-0.3-0.9-0.6-1.5-0.5c-0.1,0-0.2,0.1-0.2,0.1 c0,0.1,0,0.1-0.1,0.2c-0.2,0.8,0,1.6,0.3,2.3c0.3,0.7,0.9,1.3,1.2,2c0.3,0.7,0.7,1.4,1.1,2.1c0.9,1.5,1.9,3.1,2.9,4.6 c1,1.5,2,3,3,4.5c1,1.5,1.8,3.1,2.8,4.5c-2.3-3.1-4.7-6.1-7-9.2c-1-1.3-2-2.6-3.1-3.8c-1-1.1-1.7-2.4-3-3.1 c-0.2-0.1-0.4-0.2-0.7-0.1c-0.2,0.1-0.3,0.3-0.4,0.5c-0.5,2.1,1.3,4.6,2.4,6.3c2.5,3.9,5,7.8,7.4,11.7 c-1.1-1.8-2.5-3.6-3.9-5.2c-0.6-0.7-1.2-1.4-1.9-2.1c-0.8-0.9-1.5-2-2.7-2.1c-0.1,0-0.3,0-0.4,0.1c-0.1,0.1-0.1,0.2-0.1,0.4 c0,0.5,0.1,0.9,0.2,1.4c0.5,2.1,1.3,4.2,2.3,6.1c1,1.9,2.2,3.7,3.1,5.7c2,4.8,4.6,8.9,8.8,12.1c3,2.3,6,4.5,9,6.8L438.1,162.6 z"/></g><g><g><polygon fill="#DFAA88" points="425.2,170.9 465.6,236.9 494.2,225.3 436.8,158.7"/><path fill="#DFAA88" d="M428.4,131.1l3.2,4.5c2.2,3.1,3.5,6.7,3.7,10.4c0.6,3.6,1.2,7.1,1.8,10.7c0.2,1,1.5,5.5,0.2,5.8 c-1.2,0.3-4.1-1.6-5.1-2.2c-1.5-0.8-3-1.7-4.4-2.7c-1.1-0.8-2.2-1.7-2.9-2.8c-1.3-1.7-1.8-3.9-1.4-6c0.2-1.2,0.7-2.3,1.4-3.3 c0.5-0.7,1.8-1.5,2-2.2c0.2-1-0.9-3-1.1-4c-0.7-2.4-1.4-4.8-2-7.2c-0.8-1.4,0.5-3.1,2.1-2.8 C426.8,129.6,427.7,130.2,428.4,131.1z"/><circle fill="#E0AA88" cx="479.8" cy="229.4" r="15.9"/></g></g></g><path fill="#CD9478" d="M492.8,197.8c0,0,5.6,6.6,9.4,12.8c3.8,6.2,8.2,12.9,8.2,12.9l11-10.2l-23.5-22.4L492.8,197.8z"/><path fill="#3651B4" d="M493.5,196l26,24.1l38.5-37.4c6.4-8.1,5.5-19.7-2.1-26.7l-5.6-4.1c-6.7-4.9-16.1-3.8-21.4,2.5L493.5,196 z"/></g></g><g><path fill="#3965C6" d="M618.6,169.1c-0.1,8-4.2,13.4-5.5,21.3c-2.6,15.1-5.8,29.9-9.9,44.6c-5.9,21.2-0.2,39-5.6,48.5 c-3.1,5.5-1.9,6.7-0.6,15.6c0.8,5.6-2.2,14.4-2.9,14.8c-0.9,0.5-17.7-4.3-30.7-3.8c-14,0.5-22.7,4-36.7,2.7 c-7.7-0.7-12.6-8.3-10.6-13.7c4-10.8-3.4-14.3-0.3-22.7c3.5-9.2,3.1-20.2,2.7-30.9c-0.5-13.2-1.5-24.7-6-36.1 c-3.5-9-3.1-19.4,6.3-29.8c0,0,6-7.2,9-12.7c5.1-9.4,9-17.5,15.5-21.1c7.3-3.9,27.6-6.4,33.6-6.4c7.3-0.1,7.6,0.1,15,2.6 C608.5,147.8,618.8,155.4,618.6,169.1z"/><g><defs><path id="SVGID_6_" d="M618.6,169.1c-0.1,8-4.2,13.4-5.5,21.3c-2.6,15.1-5.8,29.9-9.9,44.6c-5.9,21.2-0.2,39-5.6,48.5 c-3.1,5.5-1.9,6.7-0.6,15.6c0.8,5.6-2.2,14.4-2.9,14.8c-0.9,0.5-17.7-4.3-30.7-3.8c-14,0.5-22.7,4-36.7,2.7 c-7.7-0.7-12.6-8.3-10.6-13.7c4-10.8-3.4-14.3-0.3-22.7c3.5-9.2,3.1-20.2,2.7-30.9c-0.5-13.2-1.5-24.7-6-36.1 c-3.5-9-3.1-19.4,6.3-29.8c0,0,6-7.2,9-12.7c5.1-9.4,9-17.5,15.5-21.1c7.3-3.9,27.6-6.4,33.6-6.4c7.3-0.1,7.6,0.1,15,2.6 C608.5,147.8,618.8,155.4,618.6,169.1z"/></defs><clipPath id="SVGID_7_"><use xlink:href="#SVGID_6_" overflow="visible"/></clipPath><path clip-path="url(#SVGID_7_)" fill="#3651B4" d="M615.8,185.5c-0.1,4-0.4,7.9-1,11.7c-3.2,21.7-3,43.6-8.4,64.8 c-3,11.7-2.5,22.9-10.8,27.4v0c4.2-34.8-15.5-48.2,8.2-88.3c3.7-6.3-17.3-24.2-17.3-24.2L615.8,185.5z"/></g></g><g><g><path fill="#DFAA88" d="M551.3,592.7l-1.2,6.8c0,0-17.4,3.2-26.5,5.7c-4.2,1.1-9.2-0.3-12.5-3.2c-1.7-1.5-4.7-3.9-2.4-6.2 c5.6-5.6,11.4-10,17.2-14.8c3.7-3,2-13.6,1.8-18.1l2.2-2.3c0,0,18.8-1.4,19.9-0.1c0.6,0.7,0.6,11.4,1,18.8 C551.1,586.3,551.3,592.7,551.3,592.7z"/><path fill="#E0E0E0" d="M488.5,613.8c1.4,0.6,2.9,0.8,4.4,0.8l48.6-0.1l9.8-0.3c3.6-0.3,4.7-4.3,5.6-8.5l0.3-5.7l-0.5-3.1l0,0 l-6.5,1.8l-1.3,0.4l-8.1,0.9l-28.8,2.9l-27,1.9l-0.5,3.1C484.5,607.8,483.4,611.6,488.5,613.8z"/><path fill="#3965C6" d="M485,605.2c2.7,9.4,28.4,2.7,41.1,2.8s23-0.2,30.8-2.3c1-9.4-0.8-16.3-4.7-21.4c-1.3-1.7-1.3,0-3,1.7 c-11,11.3-26,7.8-35.5,4.4C504.1,594.9,484.2,601.1,485,605.2z"/></g></g><g><linearGradient id="SVGID_8_" gradientUnits="userSpaceOnUse" x1="-1144.945" y1="430.69" x2="-1076.583" y2="430.69" gradientTransform="matrix(1 0 0 1 1655.302 0)"><stop offset=".356" stop-color="#DCC09E"/><stop offset="1" stop-color="#DCC09E"/></linearGradient><path fill="url(#SVGID_8_)" d="M515.1,303.1c0,0-5.6,28.3-4.6,65.7c1.4,49.2,15.3,202.8,15.3,202.8l25.7-0.2 c0,0,9.7-69.8,11.4-91.8c0.8-9.7,1.9-38.7,1.9-38.7l8.9-84.1l5.1-41.2l-5-24.7l-57.9-1L515.1,303.1z"/><path fill="#AF967B" d="M550,347.3l4.4,173.1l0.9,19.2c0,0,5-34,7.1-54.5c1.2-12.3,3.3-49.3,3.3-49.3l3.1-56.7l-15.1-23.3 L550,347.3z"/></g><g><g><path fill="#DFAA88" d="M632,558c2.5,3.5,5.9,7.1,6.5,11.4c1.2,8-5.6,18-8.8,23.9c-1.9,3.6,6.4,2.2,9.3,2.2 c3.6,0,9.1-1.7,11.5-4.5c6-7.1,17.1-18.4,17.1-18.4l-3.4-5.6c0,0-14.1-22.8-15.7-23.3c-1.6-0.5-14.1,12.9-14.1,12.9L632,558z"/><path fill="#E0E0E0" d="M621.7,614.5c1.5,0.4,8-0.4,8-0.4l38.5-25.6l7.9-5.8c2.8-2.3,1.4-6.2-0.2-10.2l-3-4.8l-2.2-2.3l0,0 l-4.4,5.2l-0.9,1l-6.1,5.3l-22,18.8L617,606.5l0,2.5C617,609.1,616.3,613.1,621.7,614.5z"/><path fill="#3965C6" d="M617,606.5c4,8.9,24.5-7.5,34.9-14.6c10.4-7.1,18.8-13.3,24.1-19.4c-4.5-8.3-9.9-13-16-14.9 c-2-0.7-1.1,0.7-1.5,3.1c-2.6,15.6-13.7,20.3-23.4,22.9c-3.3,5.7-5.1,12.6-11.4,15.8C619.8,601.3,616.5,605.1,617,606.5z"/></g></g><linearGradient id="SVGID_9_" gradientUnits="userSpaceOnUse" x1="-1097.288" y1="323.476" x2="-997.769" y2="323.476" gradientTransform="matrix(0.9924 -0.1229 0.1229 0.9924 1590.838 -22.4848)"><stop offset=".356" stop-color="#DCC09E"/><stop offset="1" stop-color="#DCC09E"/></linearGradient><path fill="url(#SVGID_9_)" d="M617.1,352.8c2.7,22.9,1,92.7,5.1,103.7c8.1,21.5,22.2,72.4,34,92.1L634,563.9 c0,0-49.3-71.7-54.9-97.1c-1.3-5.9-27-118.6-27-118.6l-16.5-25.2l-9-10.2l28-23.1l41,0.5c0,0,4.4,18.8,6.7,22.8 C609.7,325.6,615.7,340.4,617.1,352.8z"/><g><path fill="#AF967B" d="M553,559.2c0.1-0.4-4.2,0.5-10.6,0.8c-6.4,0.2-17.6,0.5-17.6,0.5l0.5,4.3l27.1,0.5L553,559.2z"/><linearGradient id="SVGID_10_" gradientUnits="userSpaceOnUse" x1="-332.299" y1="567.112" x2="-304.751" y2="567.112" gradientTransform="matrix(1 0 0 1 857.4269 0)"><stop offset=".356" stop-color="#DCC09E"/><stop offset="1" stop-color="#DCC09E"/></linearGradient><path fill="url(#SVGID_10_)" d="M551.5,571.4c1.2-0.8,1.2-8.1,1.2-8.1l-27.5-1.1c0,0,0,8.7,0.7,9.4 C526.4,572.2,550.3,572.2,551.5,571.4z"/></g><g><path fill="#AF967B" d="M627.7,554.7c0,0,6.5-3.9,10.2-7.4c3.7-3.5,11.5-11.1,11.5-11.1l3.6,6.4L630,558.4L627.7,554.7z"/><linearGradient id="SVGID_11_" gradientUnits="userSpaceOnUse" x1="-228.71" y1="551.85" x2="-201.249" y2="551.85" gradientTransform="matrix(1 0 0 1 857.4269 0)"><stop offset=".356" stop-color="#DCC09E"/><stop offset="1" stop-color="#DCC09E"/></linearGradient><path fill="url(#SVGID_11_)" d="M628.7,556.1l22.5-16.4c0,0,4.9,7.6,4.9,8.8s-20.9,15.5-22.2,15.3 C632.7,563.8,628.7,556.1,628.7,556.1z"/></g><g><path fill="none" stroke="#513B26" stroke-width=".75" stroke-miterlimit="10" d="M549.1,300.2c0,0-2.7,33.3-1.1,35.5 c1.6,2.2,4.7,2.5,4.7,2.5"/><path fill="none" stroke="#513B26" stroke-width=".75" stroke-miterlimit="10" d="M576.9,300.2c0,0,0.5,24.8,20.6,30.7"/><line fill="none" stroke="#513B26" stroke-width=".75" stroke-miterlimit="10" x1="515.8" y1="300.2" x2="597.6" y2="300.2"/></g><path fill="#DFAA88" d="M529.7,56.9c0,0-3.1,19.6-1.5,39.6c1.7,20,14.5,33.9,23.5,33.9s24.6-11.9,29.5-26.6c0,0,9-3.3,9.6-13.1 s-9-8.6-12-3.2c0,0,2.2-15.2-6.8-30.6S534.1,45,529.7,56.9z"/><path fill="#151214" d="M573.4,87.2c0,0-36-7.3-41.3-24.8c0,0-5,16.9-4.1,31c0,0-5.7-10.8-4.9-28.8s17.1-27.2,34.7-27.2 s34.7,10.3,38.5,28c3.9,17.7-7.6,32.2-7.6,32.2l1.6-11.1l-5.6-2.2l-5.8,3.3L573.4,87.2z"/><g><ellipse fill="#010000" cx="560.9" cy="89.7" rx="1.8" ry="2.5"/><ellipse fill="#010000" cx="538.3" cy="89.7" rx="1.8" ry="2.5"/></g><path fill="#340415" d="M540.1,80.4c0,0-2.7-1.2-5.9-1.2c-3.2,0-4.9,0.6-4.9,0.6s1.3-1.6,5-1.6C538.1,78.3,540.1,80.4,540.1,80.4z"/><path opacity=".4" fill="none" stroke="#2D1727" stroke-linecap="round" stroke-miterlimit="10" d="M543.2,84.3c0,0,3,3,3.4,6.5 c0.3,3.5-3,7.2-4.7,9.6c-1.7,2.4-1.7,3.5,3,5.6"/><path fill="#FFFEFB" d="M554.6,110.3h-14.3c0,0,0,0.9,0.3,1.4c0.3,0.5,2.6,4.3,6.4,4.4s7.6-4.9,7.6-4.9S554.8,110.7,554.6,110.3z"/><path fill="#DFAA88" d="M584.4,102.1c0,0-3.3,13.8-1.8,21.7c1.6,7.9,9.4,26.8,25.7,31.6c0,0-18.4,27-48.2,26.7 c-29.8-0.4-20.9-25.4-20.9-25.4l4.5-5.2c0,0,8-4.9,11.6-9.9c2.4-3.4,2.7-12.6,2.7-12.6l22.6-25.9 C580.8,103.1,583.3,101.8,584.4,102.1z"/><path fill="#CD9478" d="M582.3,103c0,0-1.5,6.7-8.2,17.7c-4.8,7.9-11.5,12.7-16.7,14.8c0,0,0.8-2.3,0.7-6.6 C558.1,128.9,573.3,120,582.3,103z"/><g><path fill="#DFAA88" d="M578.9,87.5c0-0.1,0-0.2,0-0.2C578.9,87.4,578.9,87.5,578.9,87.5z"/><path fill="#DFAA88" d="M581.2,103.9c0,0-3.7-5.1-2.4-16.3c3-5.4,12.7-6.6,12,3.2C590.2,100.6,581.2,103.9,581.2,103.9z"/></g><path fill="#D39B81" d="M586.2,88.3c0,0-2.4-0.4-2.6,0.4c-0.2,0.8,2.2,0.5,2.6,1.2c0.4,0.7,0.2,2.5-1.7,3.4 c-1.9,0.9-1.1,4.1,1.2,3.1C588,95.4,589.4,91.2,586.2,88.3z"/><path fill="#3965C6" d="M556.2,166.8c4.3-0.2,8.3-1.9,12.1-3.9c8.6-4.5,19.1-13.4,25.5-20.7c0.8,2.3,21,12.6,21.3,14.8 c0.7,5.5-19.1,6.6-17.9,12.5c1.8,8.5,3.4,17.8-0.7,25.4c-2.1,3.8-5.5,6.8-8.8,9.6c-3.4,2.9-7,5.8-11.2,7.4c-3.8,1.5-8,1.8-12,1.7 c-11.1-0.2-22.6-3.7-29.8-12.2c-5.7-6.8-9-15.9-8.4-24.6c0.1-1.9,0.4-3.8,1-5.6c1-2.7,3-5,4.9-7.2c3.9-4.4,6.3-6.2,10.9-2.4 C547,165,551.1,167.1,556.2,166.8z"/><g><g><path fill="#DFAA88" d="M628.2,267.4c-7.1,2.1-14.5-1.9-16.7-9l-25.1-81.5c-3.1-10.2,3.1-20.9,13.5-23.3 c10.1-2.3,20.2,4.3,22.1,14.5c0.1,0.4,0.2,0.8,0.3,1.3c1.6,7.4,4.5,14.2,6.1,21.7c1.2,5.5,5.8,30.2,6.3,32.9 c1,5.3,2,10.5,3,15.8c0.7,3.9,1.5,7.8,1.1,11.7C638.2,257.5,634.4,265.6,628.2,267.4z"/><path fill="#CD9478" d="M601.8,226.8c0,0,10.9-2.9,18.7-3.3c7.8-0.4,14.2,0.4,14.2,0.4l-3.1-14.9c0,0-32.1,7.3-32.6,8.9 C598.6,219.5,601.8,226.8,601.8,226.8z"/><path fill="#3965C6" d="M600.5,225.8l35-11.1L624,169.3c-4.5-13.2-16.2-22.9-24.7-21.6l-4.1,2.3c-7.8,2.7-12.9,14.4-10.8,22.5 L600.5,225.8z"/></g><path fill="#3651B4" d="M587.1,134.5c9.4,5.3,7.8,13.3,1.6,20.2c-7.2,7.9-12.1,17.8-17.6,26.9c-7-5.1-14-10.3-21-15.4 c1.7,1.3,10.7-6,12.2-7.2c4-3.2,7.5-6.4,11.4-9.5C577.9,146.2,588.3,139.6,587.1,134.5z"/><path fill="#3651B4" d="M533.9,177.8c3.6-1.9,6.7-4.3,10-6.5c1.6-1.1,6-2.6,6.6-4.5c0.4-1.2-1.4-2.7-1.7-3.9 c-0.7-2.2-0.9-4.9-0.5-7.1c0.1-0.7,6-6.7,6.6-13.5c-1,2.7-17.8,12.6-20,15.7c-2.2,3.1-2.8,6-2.8,9.8 C532,169.1,532.3,178.6,533.9,177.8z"/></g><g><path fill="#DFAA88" d="M616.8,356.1c-5.2,1.1-22.8,3.2-25.4-3.6c-1.9-5.2,13.6-8.1,10.4-11.9c-1.9-2.2-8.5,4.2-10.4,1.6 c-3.2-4.4,7.1-9.8,11.4-11.3c3.1-1.1,9.1-3.4,11.9-4.3c-2.2,0.7,1.5,14.2,2.2,15.1C620.7,346.3,626.7,354,616.8,356.1z"/></g><path fill="#DFAA88" d="M611,264c-0.3,5.6-0.2,11.2-0.3,16.8c-0.2,13.8-0.4,27.6-0.7,41.4c-0.1,3.9-0.1,7.8-0.2,11.8l12.1,15.4 c1.5-7.7,3-15.5,4.5-23.2c2.7-14.2,5.5-28.5,8.2-42.7c1.9-9.7,3.9-18,4.7-27.8c0.1-1.7-0.2-8.7-0.7-10.3c-0.5-1.7-1.5,0.7-3.2,0.2 c-2.2-0.7-4.5,0.5-6.4,1.6c-5.4,3.2-18.9-0.2-18.5,6.1C610.7,256.5,611.2,260.5,611,264z"/><g><path fill="#3651B4" d="M548,168.2c0,0-9.9,21.6-9.2,23.5c0.7,1.9,4.6,2,4.6,2l9.9-26.2l-4.3-1.9L548,168.2z"/><g><ellipse transform="matrix(0.385 -0.9229 0.9229 0.385 178.4572 612.7836)" fill="#97A1D6" cx="549" cy="172.5" rx="1.5" ry=".9"/><ellipse transform="matrix(0.385 -0.9229 0.9229 0.385 165.3463 615.1124)" fill="#97A1D6" cx="544.2" cy="183.5" rx="1.5" ry=".9"/></g></g><g><path fill="#378E57" d="M600.8,417.9l-15.7,8.1c-2,1-4.4,0.2-5.4-1.7l-5-9.7c-1-2-0.2-4.4,1.7-5.4l15.7-8.1c2-1,4.4-0.2,5.4,1.7 l5,9.7C603.5,414.5,602.8,416.9,600.8,417.9z"/></g><g><path fill="#FFC400" d="M603.9,377.2c1-1.8,2.1-3.6,3.7-4.9c3.5-3.2,8.9-3.5,13.4-2c4.5,1.5,8.3,4.5,12,7.5c1,0.8,2.1,1.7,2.5,3 c0.3,1.2,0,2.4-0.4,3.5c-2.7,8-6.6,15.7-12.6,21.7c-6,6-14.2,10-22.6,9.7c-1.7-0.1-3.5-0.3-5-1c-1.8-0.9-7.3-4.4-8-6.3 c-1.1-2.8,2.8-7,4.1-9.3C595.2,391.8,599.5,384.5,603.9,377.2z"/><path fill="#FFD740" d="M594.3,370.4c1-1.8,2.1-3.6,3.7-4.9c3.5-3.2,8.9-3.5,13.4-2c4.5,1.5,8.3,4.5,12,7.5c1,0.8,2.1,1.7,2.5,3 c0.3,1.2,0,2.4-0.4,3.5c-2.7,8-6.6,15.7-12.6,21.7c-6,6-14.2,10-22.6,9.7c-1.7-0.1-3.5-0.3-5-1c-1.8-0.9-7.3-4.4-8-6.3 c-1.1-2.8,2.8-7,4.1-9.3C585.7,385,590,377.7,594.3,370.4z"/></g><g><path fill="#3965C6" d="M653.4,394.9L643,472.8c-0.5,3.9-3.8,6.8-7.7,6.8h-56.8c-3.9,0-7.2-2.9-7.7-6.8l-10.4-77.9H653.4z"/><path fill="#3651B4" d="M653.4,397.8h-93.1c-1.4,0-2.5-1.1-2.5-2.5v-0.6c0-1.4,1.1-2.5,2.5-2.5h93.1c1.4,0,2.5,1.1,2.5,2.5v0.6 C655.9,396.7,654.8,397.8,653.4,397.8z"/></g><path opacity=".13" d="M581.5,392.1c0.4,0,0.7,0.3,0.8,0.6c0.1,0.3,0.1,0.7,0,1.1c-0.3,1.5-1,2.9-2,4c0.5,0,1,0.1,1.5,0.1 c0.3,3.3-0.5,6.6-2,9.5c-0.8,1.7-1.5,3.4-2.1,5.2c-0.5,1.5-0.9,3.5-0.7,5.1c0.1,1,0.7,2.1,1.7,2.5c0.4,0.2,0.9,0.2,1.4,0.2 c0.5,0,1-0.1,1.4-0.3c0.9-0.5,1.5-1.5,2-2.4c0.5-1,1-2.2,1.6-3.1c0.6-0.8,1.2-1.5,1.7-2.4c0.5-0.9,0.7-1.8,1.5-2.6 c0.1-0.1,0.3-0.3,0.5-0.3c0.2,0,0.4,0.2,0.4,0.4s0,0.4,0,0.6c-0.3,2.4-1.1,4.5-2.1,6.5c-0.7,1.3-1.3,2.6-1.8,4.1 c-0.4,1.4-0.5,2.9-0.6,4.4c0,0.5-0.1,1.1,0.1,1.6c0.2,0.7,0.8,1.3,1.4,1.6c0.7,0.4,1.6,0.4,2.2,0c0.5-0.3,0.7-0.9,1-1.4 c1.4-3.2,3.2-5.9,4-9.3c0.4-1.6,0.6-3.1,0.8-4.7c0.1-1.3,1.5-2.6,2.3-3.6c0.1-0.1,0.2-0.2,0.3-0.3c0.2-0.1,0.5,0.1,0.6,0.3 c0.2,0.3,0.1,0.7,0,1.1c-0.5,2.3-1.2,4.6-1.4,6.9c-0.2,2.1-0.2,4.3,0,6.4c0.1,1,0.1,2,0.3,3c0.1,0.5,0.2,1.1,0.5,1.5 c0.3,0.5,0.7,0.5,1.3,0.6c0.4,0.1,0.8,0.2,1.1,0c0.4-0.1,0.6-0.5,0.8-0.8c0.3-0.5,0.5-1.1,0.6-1.6c0.6-2.1,1.3-4.2,1.7-6.4 c0.2-1,0.3-2.1,0.4-3.1c0.1-1-0.2-1.7,0.3-2.5c0.2-0.3,0.4-0.6,0.7-0.8c0.1,0,0.2,0,0.3,0c0,0,0.1,0.1,0.1,0.1 c0.4,0.7,0.4,1.6,0.3,2.4c-0.3,2.7-0.9,5.3-0.6,8.1c0.1,1.2,0.4,2.4,0.9,3.4c0.4,0.9,1.3,1.5,2,2.2c0.6,0.5,1.4,1,2.2,0.8 c1-0.2,1.5-1.2,1.8-2.2c0.8-2.5,0.6-5.3,0.8-7.9c0.1-2.4-0.1-4.5,0.9-6.7c0.1-0.2,0.2-0.4,0.3-0.5c0.3-0.3,0.7-0.3,1.1-0.2 c0.2,0.1,0.5,0.2,0.6,0.4c0.1,0.1,0.1,0.3,0.2,0.5c0.3,1.2,0.5,2.3,0.9,3.4c0.3,0.8,0.5,1.6,1,2.2c0.5,0.7,1.3,1.1,2.1,1 c1.3-0.1,2.4-1.8,2.9-2.9c0.7-1.4,1-3,0.8-4.5c-0.2-1.8-1.1-3.5-2.3-4.8c-1.2-1.4-1.9-3.2-2.9-4.8c-0.9-1.6-1.7-3.4-2.7-4.9 c-0.5-0.7-1-1.4-1.6-2c-0.7-0.6-1.6-1.1-2.5-1.5c-3.1-1.3-6.5-1.5-9.9-1.5c-3.4,0-6.7,0.3-10.1-0.1c-0.8-0.1-1.7-0.2-2.5-0.1 c-0.7,0.1-1.5,0.2-2.1-0.3c-0.3-0.2-0.6-0.5-0.9-0.7c-0.6-0.5-1.5-0.8-2.3-0.6C582.2,392,582,392.3,581.5,392.1z"/><g><path fill="#3651B4" d="M565.4,395.7c0.9-11.2,4.1-22.1,9.3-32c4.7-8.8,10.4-15.5,17-19.9c8.1-5.3,17.8-7,26-4.5 c6.3,1.9,12.3,6.5,16.7,12.9c4.3,6.2,6.8,13.3,8.5,18.8c3.3,10.6,4.6,17.1,4.2,25c-0.1,1.3-4.8,0.3-4.7-1 c0.4-7.3-0.8-12.6-4-22.6c-1.6-5.2-4-11.8-7.9-17.5c-3.9-5.5-8.9-9.5-14.3-11.1c-6.9-2.1-15.1-0.6-22.1,4 c-5.9,3.9-11.1,10-15.4,18.1c-4.9,9.2-7.8,19.3-8.8,29.6C569.9,398.2,565.2,398.4,565.4,395.7z"/></g><path fill="#DFAA88" d="M602.4,337.8c5-1.4,10.2-1.8,15.3-1c2.1,0.3,4-4.4,4.9-2.5c0.6,1.3,1.1,4.4,1.1,5.8c0,0.6,0,6.3-1.7,12.6 c-5.7-1.4-11.8-5.9-17.7-5.3c-1.2,0.1-2.4,0.3-3.6,0.1c-0.9-0.2-4.1,1-3.8,0c0.1-0.6,2.7-1.7,4.3-4c0.4-0.5,0.8-1.8,1.1-2.7 C602.3,340.5,602.6,337.8,602.4,337.8z"/><path fill="#E08619" d="M582.4,392.2c0.5,0,0.7-0.1,1,0.3c0.2,0.4,0.3,0.9,0.3,1.3c0,0.6-0.1,1.1-0.2,1.7 c-0.4,2.3-0.9,4.6-1.3,6.9c-0.6,3.4-1.3,6.8-2.1,10.3c-0.2,0.8-0.4,1.6-0.6,2.4c-0.2,1-0.5,2-0.2,3c0.2,1,1,1.9,2,1.9 c0.9,0,1.6-0.7,2.2-1.3c3.4-3.8,5.7-8.6,6.5-13.7c0,6.5-2.6,12.7-3.7,19.1c-0.3,1.7-0.3,3.7,1.2,4.6c1,0.6,2.3,0.2,3.2-0.6 s1.4-1.9,1.8-2.9c1.7-4.2,2.9-8.6,3.5-13.1c0.3-2.4,0.5-4.9,1.7-7c0,6.8,0.1,13.5,0.1,20.3c0,0.7,0,1.4,0.3,2.1 c0.3,0.6,1,1.1,1.7,1c0.6-0.1,1-0.7,1.3-1.3c3.3-6.1,2.2-13.5,3.3-20.4c-0.2,5.2,0.1,10.4,0.7,15.5c0.3,2.2,0.6,4.4,1.7,6.4 c0.6,1.1,1.9,2.2,3,1.6c0.5-0.3,0.8-0.8,1-1.4c2.9-6.8,1.3-13.7,0.9-20.8c2.4,2.1,3.2,6.8,4.6,9.6c0.3,0.6,0.7,1.3,1.4,1.6 c0.6,0.2,1.2,0,1.6-0.4s0.8-0.8,1.1-1.3c1.8-2.7,2.7-5.7,1.6-8.9c-1.9-5.1-2.9-10.2-5.3-15.3c-0.3-0.6-0.6-1.2-1.1-1.6 c-0.6-0.4-1.3-0.5-2.1-0.6c-5.5-0.7-11.1-1.1-16.7-1.2c-5.1-0.1-9.4-0.6-14.4,0.8c-0.9,0.2-1.5,0.6-2.1,1.3 c-0.1,0.1-0.2,0.2-0.2,0.4c0.4-0.1,0.8-0.1,1.2-0.1C581.3,392.2,581.9,392.2,582.4,392.2z"/><path fill="#151214" d="M556.3,79.5c0,0,7.8,4.8,14.9,7.4c5.8,2.1,3.7,9.4-1.5,9.3c0,0,8.9,2.6,10.8-5.2c1.9-8-5-12.9-8.5-13.1 C568.4,77.9,556.3,79.5,556.3,79.5z"/><path fill="#4C474C" d="M537.5,59.3c0,0,4.9,12.4,20.8,15.8c15.9,3.4,17.6,11.4,17.6,11.4s0.1-6.2-9.6-10S546,73.4,537.5,59.3z"/><path fill="#4C474C" d="M572.4,43.7c0,0,20.1,4.3,24.7,26.9s-6,39.3,2.9,52.5c8.9,13.2,15.8,14.7,15.8,14.7s-8.8-0.7-17.1-13.9 s1.9-33.9-3-52.9C590.2,49.1,572.4,43.7,572.4,43.7z"/><circle fill="#D39B81" cx="583.7" cy="99" r="2.3"/><circle fill="#FFF" cx="583.7" cy="99" r="1.8"/><linearGradient id="SVGID_12_" gradientUnits="userSpaceOnUse" x1="-341.59" y1="294.78" x2="-259.847" y2="294.78" gradientTransform="matrix(1 0 0 1 857.4269 0)"><stop offset=".356" stop-color="#DCC09E"/><stop offset="1" stop-color="#DCC09E"/></linearGradient><polygon fill="url(#SVGID_12_)" points="597.6,300.2 515.8,300.2 517.4,289.4 596,289.4"/></g></g></svg>