<svg version="1.1" xmlns="http://www.w3.org/2000/svg" xmlns:xlink="http://www.w3.org/1999/xlink" x="0" y="0" width="1920" height="900" viewBox="0 0 1920 900" enable-background="new 0 0 1920 900" xml:space="preserve"><g id="Background"><g id="Frames_1_" opacity=".01"><path d="M1915.2,268.2v110h-125.3v-110H1915.2L1915.2,268.2z"/><path fill="#FBFBFB" d="M1907.5,275v96.4h-109.9V275H1907.5z"/><path d="M1893.1,287.6V359H1812v-71.4H1893.1L1893.1,287.6z"/></g><g id="Frames_2_" opacity=".01"><path d="M1517,75.4v110h-125.3v-110H1517L1517,75.4z"/><path fill="#FBFBFB" d="M1509.3,82.1v96.4h-109.9V82.1H1509.3z"/><path d="M1494.9,94.8v71.4h-81.1V94.8H1494.9L1494.9,94.8z"/></g><g id="Frames_3_" opacity=".01"><path d="M148.3,162v123.5H7.7V162H148.3L148.3,162z"/><path fill="#FBFBFB" d="M139.7,169.7v108.3H16.3V169.7H139.7z"/><path d="M123.5,183.8v80.1H32.5v-80.1H123.5L123.5,183.8z"/></g><g opacity=".02"><path d="M193,458.6v84.3H97v-84.3H193z"/><path fill="#FBFBFB" d="M187.1,463.8v73.8H103v-73.8H187.1L187.1,463.8z"/><path opacity=".5" d="M176.1,473.5v54.6h-62.2v-54.6H176.1z"/></g></g><g id="Cleaners"><g><g><path opacity=".03" d="M438.4,700.6L425.8,671c2.8-5,5.8-10.1,8.8-15.2c51.5-86.3,134.7-131.4,134.7-131.4 s-0.1,37.1-12.8,86l-22.3,4.2l19.5,5.8c-7.7,26.7-19.1,56.3-36.2,85C466,791.5,405.7,850.4,382.9,836.7 c-20.4-12.2-4.3-77.6,35.8-152.5L438.4,700.6z"/><path fill="none" stroke="#0E97FA" stroke-width="2" stroke-miterlimit="10" d="M204.7,1047.7c0,0,110.5-90.8,178.2-211"/><path opacity=".25" fill="none" stroke="#FFF" stroke-miterlimit="10" d="M385.1,837.4c0,0,157.7-248.7,184.2-313.1"/></g><g><path opacity=".02" d="M482.3,791.3c62.6-59.9,142.2-78.4,142.2-78.4s-6.1,21.8-20.9,51.1l-32.4,7.8l18.2,17.7 c-12.5,20.4-28.7,42.2-49.4,62c-62.6,59.9-126.3,95-142.2,78.4C381.8,913.3,419.7,851.3,482.3,791.3z"/><path fill="none" stroke="#0E97FA" stroke-width="2" stroke-miterlimit="10" d="M397.7,929.9c-75.3,90.5-158.6,130.3-158.6,130.3"/><path opacity=".15" fill="none" stroke="#FFF" stroke-miterlimit="10" d="M624.5,712.9c0,0-190.8,157.7-226.7,217"/></g><g><path opacity=".02" d="M309,747.5l-13.7-27.5c25.4-37.6,55.5-59.4,55.5-59.4s21,68.3-1.8,136.2 c-22.8,67.9-58.9,117-80.7,109.7c-21.8-7.3-21-68.3,1.8-136.2c4.5-13.3,10.3-25.6,16.8-36.8L309,747.5z"/><path fill="none" stroke="#0E97FA" stroke-width="2" stroke-miterlimit="10" d="M192.8,1020.1c0,0,50.3-48.2,75.6-113.6"/><path opacity=".25" fill="none" stroke="#FFF" stroke-miterlimit="10" d="M269.2,906c0,0,73.8-142.1,81.6-245.4"/></g></g><g><g><path opacity=".015" d="M1454.6,554.8l-33.2-3.9c-3.1-5.1-6.2-10.4-9.2-15.7c-51.3-90.6-49.4-188.7-49.4-188.7 s33.4,19.1,70.9,55.6l-7.6,22.2l15.2-14.6c20.2,20.6,40.9,46.1,58,76.2c51.3,90.6,73.4,175.1,49.4,188.7 c-21.4,12.1-72.1-35.9-119.1-110.4L1454.6,554.8z"/><path fill="none" stroke="#0E97FA" stroke-width="2" stroke-miterlimit="10" d="M1667.6,1063.3c0,0-45.2-266.1-118.8-388.7"/><path opacity=".25" fill="none" stroke="#FFF" stroke-miterlimit="10" d="M1550.6,672.9c0,0-143.2-269.6-187.7-326.5"/></g><g><path opacity=".015" d="M1558.9,561.7c-21.9-87.1,2.2-168.3,2.2-168.3s16.5,16.6,35.3,45.1l-9.6,33.2l25.2-7.3 c12,21.7,23.3,47.5,30.5,76.3c21.9,87.1,20.9,162.5-2.2,168.3C1617.3,714.8,1580.8,648.8,1558.9,561.7z"/><path fill="none" stroke="#0E97FA" stroke-width="2" stroke-miterlimit="10" d="M1640.4,709c42.9,114.3,56.1,329.7,56.1,329.7"/><path opacity=".15" fill="none" stroke="#FFF" stroke-miterlimit="10" d="M1561.1,393.4c0,0,44.2,252.8,79.3,315.5"/></g><g><path opacity=".02" d="M1430.6,695.4l-31.8-1.7c-20.9-42.2-25.1-80.5-25.1-80.5s72.3,16.1,121.8,71.4 c49.5,55.3,75.2,113.1,57.4,129c-17.8,15.9-72.3-16.1-121.8-71.4c-9.7-10.8-17.8-22.4-24.6-34L1430.6,695.4z"/><path fill="none" stroke="#0E97FA" stroke-width="2" stroke-miterlimit="10" d="M1636.6,1059.8c0,0-37.7-190-83.6-246.3"/><path opacity=".25" fill="none" stroke="#FFF" stroke-miterlimit="10" d="M1553,812.5c0,0-90.2-139.3-179.2-199.4"/></g></g><g><g><path fill="#E5E5E5" d="M1648.4,930.3h-318.1c-1.7,0-3-1.3-3-3l-1-429.3c0-1.7,1.3-3,3-3h318.1c1.7,0,3,1.3,3,3l1,429.3 C1651.4,929,1650,930.3,1648.4,930.3z"/><path fill="#CCC" d="M1262.5,528.1l64.6-33.2c0.7-0.4,1.5-0.6,2.3-0.6L1653,495l-47.7,33.1H1262.5z"/><g><g><ellipse opacity=".19" enable-background="new" cx="1535.3" cy="513.3" rx="52" ry="8.2"/><rect x="1483.3" y="507.5" fill="#AAA" width="104" height="5.8"/><ellipse fill="#F2F2F2" cx="1535.3" cy="507.5" rx="52" ry="8.2"/></g><g><ellipse opacity=".19" enable-background="new" cx="1385.8" cy="513.3" rx="52" ry="8.2"/><rect x="1333.8" y="507.5" fill="#AAA" width="104" height="5.8"/><ellipse fill="#F2F2F2" cx="1385.8" cy="507.5" rx="52" ry="8.2"/></g></g><path fill="#F2F2F2" d="M1652.2,956.2l-321.5-0.2c-1.9,0-3.5-1.6-3.5-3.5V530.2c0-1.9,1.6-3.5,3.5-3.5h273.8l47.9-31.6 c1.1-0.4,2.3,0.4,2.3,1.6l1,455.9C1655.7,954.6,1654.1,956.2,1652.2,956.2z"/><path fill="#E7E7E7" d="M1602.9,956h-338.1c-1.7,0-3-1.3-3-3V529.7c0-1.7,1.3-3,3-3h338.1c1.7,0,3,1.3,3,3V953 C1605.9,954.7,1604.6,956,1602.9,956z"/><line fill="none" stroke="#AAA" stroke-miterlimit="10" x1="1261.8" y1="871.6" x2="1605.9" y2="871.6"/><line fill="#CCC" x1="1261.8" y1="617.4" x2="1605.9" y2="617.4"/><g><circle fill="#CCC" cx="1304.1" cy="573.2" r="15.4"/><circle fill="#CCC" cx="1369.1" cy="573.6" r="15.4"/><circle fill="#CCC" cx="1434.1" cy="573.6" r="15.4"/><circle fill="#CCC" cx="1499.1" cy="573.6" r="15.4"/><circle fill="#CCC" cx="1564.1" cy="573.6" r="15.4"/></g></g><g><g><path fill="#E0AA88" d="M1704.3,921.9l-5.3-53.8l-34.6-2.2l-3.1,24.8c0.3,7.4-2.2,14.7-7,20.3l-9,10.6l49.2,10.3L1704.3,921.9z"/><g><g><path fill="#3965C6" d="M1607.4,949.8c9.7,4.3,24.8,0.6,34.9-0.4c15.1-1.4,30.2-2.1,45.3-3.1c5.5-0.4,12.9,0,16.7-4.9 c3.6-4.6,2.5-13.3,2.7-18.6c0.3-7.9,2-26.8-10.4-18.7c-10.3,6.7-15.9,7.9-24.6-1.7c-1.6-1.8-7.7-10-11-8.6 c-2.3,1-4.3,11.3-5.9,13.6c-7,10.3-19.4,15.5-30.1,21c-6.3,3.2-14,5.8-19.8,10c-3.1,2.3-4.3,1.8-2.8,6.2 C1603.2,946.8,1605.4,949,1607.4,949.8z"/><path fill="#3651B4" d="M1622.3,929.8c1.5,6.1,19.7-1.9,23.6-4.3c7.3-4.6,19.8-14.2,11.4-22.9 C1651.3,917.4,1635.4,923.1,1622.3,929.8z"/><path fill="#DBDBDB" d="M1608,955.6c-2.6,0.4-6.9,0.4-9.5-0.3c-2.5-0.6-5-2.5-5.5-5.1c-0.9-4.5,4-7.8,8.2-9.6 c0.5-0.2,1.1-0.5,1.7-0.4c1.1,0.2,1.7,1.2,2.3,2.2c2.5,3.9,6.9,6.1,11.4,7s9.1,0.6,13.7,0.1c19.8-1.9,39.5-5.3,58.8-10.2 c2.2-0.6,4.4-1.3,6.7-1.5c1.9-0.2,3.8-0.3,5.7-0.5c1.8-0.2,3.9-0.3,5.3,0.9c1.1,0.9,1.6,2.4,1.6,3.8s-0.4,2.8-0.7,4.2 c-0.6,2.5-0.5,5.5-1.3,7.9c-0.6,1.5-0.1,1.1-1.3,1.5c-0.9,0.3-2.4,0-3.3,0c-3.7,0-7.4,0-11.1,0c-17.6-0.1-35.2-0.1-52.8-0.2 C1627.5,955.4,1618.6,955.7,1608,955.6z"/><g><path fill="#FFF" d="M1647.8,915.2c1.6,1.4,3.1,2.9,4.4,4.5l0.3,0.3c0.1,0.1,0.1,0.1,0.2,0.2c0.7,0.9,1.5,1.8,2.6,2.4 c0.6,0.4,1.4,0.6,2.1,0.6c0.9,0,1.7-0.3,2.4-1c0.7-0.8,1-2,0.8-3.5c-0.2-1.7-0.9-3.3-1.8-4.8c-0.6-0.8-1.3-1.6-2-2.3 c-0.5-0.4-1-0.9-1.5-1.4c-0.4-0.4-0.8-0.8-1.3-1.2c-0.3,0.3-0.5,0.7-0.8,1c0.4,0.4,0.8,0.7,1.2,1.1c0.5,0.5,1,1,1.6,1.4 c0.8,0.7,1.5,1.5,2,2.3c0.7,1.2,1.2,2.5,1.4,3.9c0.1,1.1,0,1.9-0.5,2.4c-0.7,0.8-2,0.7-2.9,0.2c-0.9-0.5-1.5-1.3-2.2-2.1 c0-0.1-0.1-0.1-0.1-0.1l-0.3-0.3c-1.3-1.6-2.8-3.1-4.4-4.5c0,0,0,0-0.1,0.1C1648.5,914.7,1648.2,915,1647.8,915.2z"/></g><g><path fill="#FFF" d="M1638.9,921.2c0.2,0.2,0.4,0.5,0.6,0.7l0.4,0.4c0.8,0.9,1.5,1.8,2.2,2.7l0.4,0.5c0.3,0.5,0.7,1,1,1.4 c0.6,0.7,1.2,1.4,2.1,1.8c0.6,0.3,1.4,0.5,2.1,0.5c0.4,0,0.9-0.1,1.3-0.2c0.8-0.3,1.5-0.8,1.8-1.6c0.3-0.6,0.3-1.2,0.3-1.7 c0-1.2-0.2-2.4-0.6-3.6c-0.4-1.1-0.9-2.3-1.7-3.4c-0.6-0.9-1.3-1.8-2.1-2.7c-0.4,0.3-0.7,0.5-1.1,0.8c0.7,0.8,1.4,1.7,2,2.6 c0.8,1.2,1.3,2.4,1.7,3.5c0.3,0.9,0.4,1.8,0.4,2.7c0,0.3,0,0.8-0.2,1.1c-0.2,0.5-0.7,0.7-1,0.9c-0.7,0.3-1.6,0.2-2.3-0.2 c-0.6-0.3-1.1-0.8-1.6-1.3c-0.4-0.5-0.8-1-1.1-1.5l-0.4-0.5c-0.7-1-1.5-2-2.3-2.9l-0.4-0.4c-0.1-0.1-0.3-0.3-0.4-0.4 C1639.7,920.8,1639.3,921,1638.9,921.2z"/></g><g><path fill="#FFF" d="M1628.2,926.8c0.1,0.1,0.1,0.1,0.2,0.2l3.4,4l1.8,2.1c0.3,0.4,0.7,0.9,1.3,1.1 c0.4,0.2,0.8,0.3,1.2,0.3c0.8,0,1.6-0.3,2.2-0.6c0.4-0.2,0.9-0.5,1.2-0.9c0.4-0.5,0.5-1.2,0.5-1.8c0-0.7-0.1-1.6-0.2-2.5 c-0.4-2.1-1.3-4.5-2.6-6.5c-0.4,0.2-0.8,0.4-1.2,0.6c1.3,2,2.2,4.4,2.5,6.4c0.1,0.7,0.2,1.4,0.2,1.9c0,0.4-0.1,0.8-0.2,1 c-0.2,0.2-0.5,0.4-0.8,0.5c-0.6,0.3-1.6,0.7-2.3,0.4c-0.3-0.2-0.6-0.5-0.9-0.8l-1.3-1.5l-3.8-4.6 C1629,926.4,1628.6,926.6,1628.2,926.8z"/></g></g><path fill="#DBDBDB" d="M1595.7,957l109.8-0.3c0.9,0,1.5-0.7,1.5-1.6l0-4.2l-113.8,0.3l0,3.3 C1593.2,955.9,1594.3,957,1595.7,957z"/></g><linearGradient id="SVGID_1_" gradientUnits="userSpaceOnUse" x1="1635.407" y1="670.686" x2="1803.551" y2="670.686"><stop offset=".356" stop-color="#DCC09E"/><stop offset="1" stop-color="#DCC09E"/></linearGradient><path fill="url(#SVGID_1_)" d="M1689.3,526c-21.8,71.9-57.7,134-53.6,185.2c1.5,18.5,11.9,82.6,15.3,100.8 c3.4,18.1,5.4,33.6,6.8,53.7c0.3,4.8,2.1,12.8,3.3,13.7c2.3,1.8,9,0,11.8-0.1c8.9-0.3,19.5,0.1,28.1-2.4 c4.1-1.2,1.6-0.4,2.4-4.2c1.1-4.7,0.1-10.6,0.4-16.3c0.5-10.4-0.3-20.8,0.4-31.1c2.9-38.6-5.4-86.5,7.7-124.9 c6.6-19.3,43.7-53.4,56.2-89.2c10.6-30.6,37.7-60.6,35.3-94.4c-2.4-33.2-33.7-39.8-59-51.6c-12.4-5.8-22.4-6.3-30.8,6 C1702.5,487.4,1695,507.3,1689.3,526z"/><g><defs><path id="SVGID_2_" d="M1689.3,526c-21.8,71.9-57.7,134-53.6,185.2c1.5,18.5,11.9,82.6,15.3,100.8c3.4,18.1,5.4,33.6,6.8,53.7 c0.3,4.8,2.1,12.8,3.3,13.7c2.3,1.8,9,0,11.8-0.1c8.9-0.3,19.5,0.1,28.1-2.4c4.1-1.2,1.6-0.4,2.4-4.2 c1.1-4.7,0.1-10.6,0.4-16.3c0.5-10.4-0.3-20.8,0.4-31.1c2.9-38.6-5.4-86.5,7.7-124.9c6.6-19.3,43.7-53.4,56.2-89.2 c10.6-30.6,37.7-60.6,35.3-94.4c-2.4-33.2-33.7-39.8-59-51.6c-12.4-5.8-22.4-6.3-30.8,6C1702.5,487.4,1695,507.3,1689.3,526z"/></defs><clipPath id="SVGID_3_"><use xlink:href="#SVGID_2_" overflow="visible"/></clipPath><linearGradient id="SVGID_4_" gradientUnits="userSpaceOnUse" x1="1694.886" y1="666.86" x2="1793.055" y2="666.86"><stop offset=".356" stop-color="#C2AA8C"/><stop offset="1" stop-color="#C2AA8C"/></linearGradient><path clip-path="url(#SVGID_3_)" fill="url(#SVGID_4_)" d="M1745.2,548.7c0,0-11.3,75.3-46.7,155.7 c-15.2,34.5,23.4,80.6,23.4,80.6l71.3-189.2L1745.2,548.7z"/></g><linearGradient id="SVGID_5_" gradientUnits="userSpaceOnUse" x1="1657.846" y1="874.324" x2="1705.876" y2="874.324"><stop offset=".356" stop-color="#C2AA8C"/><stop offset="1" stop-color="#C2AA8C"/></linearGradient><path fill="url(#SVGID_5_)" d="M1703.4,872.6c0,0-21.1,0.8-29.8-3.9c-8.6-4.6-15.7-5.3-15.7-5.3l3.7,19.1l44.3,2.6L1703.4,872.6 z"/><linearGradient id="SVGID_6_" gradientUnits="userSpaceOnUse" x1="1658.594" y1="885.164" x2="1706.359" y2="885.164"><stop offset=".356" stop-color="#DCC09E"/><stop offset="1" stop-color="#DCC09E"/></linearGradient><path fill="url(#SVGID_6_)" d="M1659.2,892.8c1.8,1.1,42.7,4,46,2.4s-1.3-20.5-1.3-20.5l-43.8,1.5 C1660.1,876.2,1657.4,891.7,1659.2,892.8z"/></g><g><path fill="#E0AA88" d="M1829.4,922.8l-0.1-58.5l-38.5,2.5l1.5,24.8c0.3,7.4-6.9,14.7-11.7,20.3l-9.1,10.6l49.2,10.4 L1829.4,922.8z"/><linearGradient id="SVGID_7_" gradientUnits="userSpaceOnUse" x1="1733.311" y1="675.345" x2="1853.611" y2="675.345"><stop offset=".356" stop-color="#DCC09E"/><stop offset="1" stop-color="#DCC09E"/></linearGradient><path fill="url(#SVGID_7_)" d="M1733.3,541.1c0,67.5,18,134.3,29.8,200.3c4.4,24.5,8.9,49.1,13.3,73.6c2.2,12.3,4,33.6,6.3,46.6 c0.8,4.5,3.1,8.6,3.9,13c1.1,6-0.9,4.9,0.9,10.5c1.3,4.3-0.7,2.6,4.5,3.3c5.3,0.7,10.9,0.4,16.2,0.6c7.8,0.3,15.6,0.6,23.4,0.8 c-3.1-64.1,6.3-122.1,3.3-186.3c-1.4-30,13.3-114.4,15.6-125.3c5.5-25.9,4-78.6-7.4-103.9c-11.7-25.9-43.5-8.2-68.7-2.2 c-14,3.3-27.7,10.3-34.5,23.6C1733,509.2,1733.3,526.3,1733.3,541.1z"/><g><linearGradient id="SVGID_8_" gradientUnits="userSpaceOnUse" x1="1729.234" y1="535.804" x2="1807.746" y2="535.804"><stop offset=".356" stop-color="#C2AA8C"/><stop offset="1" stop-color="#C2AA8C"/></linearGradient><path fill="url(#SVGID_8_)" d="M1729.2,483l22,30.8c8.5,12,8.2,28.1-0.8,39.7h0c-1,1.3-1.1,3.1-0.3,4.5l18,31.6 c4.3,7.6,13.9,10.2,21.5,5.9l10.2-5.8c7.6-4.3,10.2-13.9,5.9-21.5l-24.6-43.1l-36.3-51L1729.2,483z"/><linearGradient id="SVGID_9_" gradientUnits="userSpaceOnUse" x1="1716.926" y1="505.832" x2="1731.038" y2="505.832"><stop offset=".356" stop-color="#C2AA8C"/><stop offset="1" stop-color="#C2AA8C"/></linearGradient><path fill="url(#SVGID_9_)" d="M1716.9,496c0,0,4.6,5.8,6.4,12.2c1.4,4.7,1.6,9,1.6,11.7c0,1,1.3,1.4,1.8,0.6 c1.4-2.2,3.2-5.3,4.1-8.6c1.6-5.9-4.8-21.2-4.8-21.2L1716.9,496z"/><linearGradient id="SVGID_10_" gradientUnits="userSpaceOnUse" x1="1709.157" y1="481.587" x2="1753.803" y2="481.587"><stop offset=".356" stop-color="#C2AA8C"/><stop offset="1" stop-color="#C2AA8C"/></linearGradient><path fill="url(#SVGID_10_)" d="M1738.3,464.6l-28.2,25.6c-1,0.9-1.2,2.3-0.5,3.5l2.5,4.3c0.7,1.2,2.1,1.7,3.4,1.2l38.4-14.6 l-11.2-19.4C1741.7,463.7,1739.6,463.4,1738.3,464.6z"/></g><linearGradient id="SVGID_11_" gradientUnits="userSpaceOnUse" x1="1786.204" y1="880.98" x2="1831.286" y2="880.98"><stop offset=".356" stop-color="#C2AA8C"/><stop offset="1" stop-color="#C2AA8C"/></linearGradient><path fill="url(#SVGID_11_)" d="M1786.2,882c0,0,0.5-0.4,0.5-3.9s-0.3-4.7-0.3-4.7s5.5,1.5,20.8,3c15.2,1.5,24.1,5.6,24.1,5.6 v6.4l-45.1-2.1V882z"/><linearGradient id="SVGID_12_" gradientUnits="userSpaceOnUse" x1="1785.607" y1="890.573" x2="1832.727" y2="890.573"><stop offset=".356" stop-color="#DCC09E"/><stop offset="1" stop-color="#DCC09E"/></linearGradient><path fill="url(#SVGID_12_)" d="M1786.1,899.4c1.1,1.7,44.6,0.8,46,0s0-14.3,0-14.3l-45.8-4.3 C1786.3,880.8,1784.9,897.7,1786.1,899.4z"/><g><g><path fill="#3965C6" d="M1734,955c9.7,4.3,24.8,0.7,34.9-0.3c15.1-1.4,30.2-2,45.4-3c5.5-0.4,12.9,0,16.7-4.8 c3.6-4.6,2.5-13.3,2.7-18.6c0.4-7.9,2.1-26.8-10.3-18.8c-10.4,6.7-15.9,7.8-24.6-1.7c-1.6-1.8-7.6-10-10.9-8.6 c-2.3,1-4.4,11.3-5.9,13.6c-7,10.3-19.4,15.5-30.2,20.9c-6.3,3.2-14.1,5.8-19.8,10c-3.1,2.2-4.3,1.8-2.9,6.2 C1729.7,952,1731.9,954.2,1734,955z"/><path fill="#3651B4" d="M1748.9,935c1.5,6.1,19.7-1.8,23.6-4.2c7.4-4.6,19.9-14.2,11.5-22.9C1778,922.7,1762,928.4,1748.9,935 z"/><path fill="#DBDBDB" d="M1734.6,960.8c-2.6,0.3-6.9,0.3-9.5-0.3s-5-2.5-5.5-5.1c-0.9-4.5,4-7.8,8.2-9.6 c0.6-0.2,1.1-0.5,1.7-0.4c1.1,0.2,1.7,1.2,2.3,2.2c2.5,3.9,6.9,6.2,11.4,7.1c4.5,0.9,9.1,0.6,13.7,0.2 c19.8-1.8,39.5-5.2,58.8-10.1c2.2-0.6,4.4-1.3,6.7-1.5c1.9-0.2,3.8-0.3,5.7-0.5c1.8-0.2,3.9-0.3,5.3,0.9 c1.1,0.9,1.6,2.4,1.6,3.8c0,1.4-0.4,2.8-0.7,4.2c-0.6,2.5-0.5,5.5-1.3,7.8c-0.6,1.5-0.1,1.1-1.3,1.5c-0.9,0.3-2.4,0-3.3,0 c-3.7,0-7.4,0-11.1-0.1c-17.6-0.1-35.2-0.2-52.8-0.3C1754,960.6,1745.1,960.9,1734.6,960.8z"/><g><path fill="#FFF" d="M1774.5,920.5c1.6,1.4,3.1,2.9,4.4,4.5l0.3,0.3c0.1,0.1,0.1,0.1,0.2,0.2c0.7,0.9,1.5,1.8,2.6,2.4 c0.6,0.4,1.4,0.6,2.1,0.6c0.9,0,1.7-0.3,2.4-1c0.7-0.8,1-2,0.8-3.5c-0.2-1.7-0.9-3.3-1.8-4.8c-0.6-0.9-1.3-1.6-2-2.3 c-0.5-0.4-1-0.9-1.5-1.4c-0.4-0.4-0.8-0.8-1.3-1.2c-0.3,0.3-0.5,0.7-0.8,1c0.4,0.4,0.8,0.7,1.2,1.1c0.5,0.5,1,1,1.6,1.4 c0.8,0.7,1.5,1.5,2,2.3c0.7,1.2,1.2,2.5,1.4,3.9c0.1,1.1,0,1.9-0.5,2.4c-0.7,0.8-2,0.7-2.9,0.2c-0.9-0.5-1.5-1.3-2.2-2.1 c0-0.1-0.1-0.1-0.1-0.1l-0.3-0.3c-1.3-1.6-2.8-3.1-4.4-4.5c0,0,0,0-0.1,0.1C1775.1,920,1774.8,920.3,1774.5,920.5z"/></g><g><path fill="#FFF" d="M1765.5,926.5c0.2,0.2,0.4,0.5,0.6,0.7l0.4,0.4c0.8,0.9,1.5,1.8,2.2,2.7l0.4,0.5c0.3,0.5,0.7,1,1,1.4 c0.6,0.7,1.2,1.4,2.1,1.8c0.6,0.3,1.3,0.5,2.1,0.5c0.4,0,0.9-0.1,1.3-0.2c0.8-0.3,1.5-0.8,1.8-1.6c0.3-0.6,0.3-1.2,0.3-1.6 c0-1.2-0.2-2.4-0.6-3.6c-0.4-1.1-0.9-2.3-1.7-3.4c-0.6-0.9-1.3-1.8-2.1-2.7c-0.4,0.3-0.7,0.5-1.1,0.8c0.7,0.8,1.4,1.7,2,2.6 c0.8,1.2,1.3,2.4,1.7,3.5c0.3,0.9,0.4,1.8,0.4,2.7c0,0.3,0,0.8-0.2,1.1c-0.2,0.5-0.7,0.7-1,0.9c-0.7,0.2-1.6,0.2-2.3-0.2 c-0.6-0.3-1.1-0.8-1.6-1.3c-0.4-0.5-0.8-1-1.1-1.5l-0.4-0.5c-0.7-1-1.5-2-2.3-2.9l-0.4-0.4c-0.1-0.1-0.3-0.3-0.4-0.4 C1766.3,926,1765.9,926.2,1765.5,926.5z"/></g><g><path fill="#FFF" d="M1754.8,932c0.1,0.1,0.1,0.1,0.2,0.2l3.4,4l1.8,2.1c0.3,0.4,0.7,0.9,1.3,1.2c0.4,0.2,0.8,0.3,1.2,0.3 c0.8,0,1.6-0.3,2.2-0.6c0.4-0.2,0.9-0.5,1.2-0.9c0.4-0.5,0.5-1.2,0.5-1.8c0-0.7-0.1-1.6-0.2-2.5c-0.4-2.1-1.3-4.5-2.6-6.5 c-0.4,0.2-0.8,0.4-1.2,0.6c1.3,2,2.2,4.4,2.5,6.4c0.1,0.7,0.2,1.4,0.2,1.9c0,0.4-0.1,0.8-0.2,1c-0.2,0.2-0.5,0.4-0.8,0.5 c-0.6,0.3-1.6,0.7-2.3,0.4c-0.3-0.2-0.6-0.5-0.9-0.8l-1.3-1.5l-3.8-4.6C1755.6,931.6,1755.2,931.8,1754.8,932z"/></g></g><path fill="#DBDBDB" d="M1722.2,962.1H1832c0.9,0,1.6-0.7,1.6-1.6v-4.2h-113.8v3.3C1719.7,961,1720.8,962.1,1722.2,962.1z"/></g></g><g><path fill="none" stroke="#513B26" stroke-width=".5" stroke-miterlimit="10" d="M1730.8,506.5c0,0-12.1,51.1-4.1,59.9 c8,8.8,9.6,7.2,9.6,7.2"/><path fill="#E0AA88" d="M1653.2,332.7c-2.8,15.7-3.4,31.4-3.6,47.3c-0.1,13.7,2.8,21.6,13.7,29.7c5.8,4.3,19.1,15,27.3,11 c4.6-2.3,4.7-8.4,5.5-12.8c1.4-7.1,3.5-14.1,5.6-21.1c6.7-23.2,22.3-54.1-5.4-68.3c-8.1-4.2-16.7-7.6-25.3-10.7 C1658.4,303.3,1654.8,323.5,1653.2,332.7z"/><path fill="#E0AA88" d="M1613.5,517l-22.6-11.1l53.8-104.5c0.1-0.4,0.2-0.7,0.4-1.1c0.6-1.5,1.4-2.9,2.3-4.2l0.6-1.2l0.1,0.1 c7.3-9.9,20.7-13.8,32.4-8.7c13.6,5.9,19.9,21.8,13.9,35.4c-1.3,3.1-3.2,5.7-5.4,8l0.2,0.2L1613.5,517z"/><path fill="#C18B6F" d="M1650.8,350.1c-0.2,1.9-0.3,3.7-0.5,5.6c1.9,0.7,13.8,7.3,18,9.6c7.3,4,29.4,22.1,31.5,28.1 c0.5-1.6,0.9-3.2,1.4-4.8c2.4-8.3,4.8-16.6,7.4-24.8C1689.8,357.6,1670.4,353.1,1650.8,350.1z"/><g><path fill="#3651B4" d="M1696.1,249.2c-8.8,2.5-17.5,7.5-21,11.6c-17.6,20.3-22.4,45.6-27.4,71.2c-0.2,0.9-0.3,1.8-0.1,2.7 c0.4,1.6,1.8,2.7,3.2,3.6c7.3,5,15.6,8.4,23,13.2c6.7,4.4,12.4,8.2,20.6,9.8c0.7,0.1,1.5,0.3,2.1-0.1c0.7-0.4,1-1.2,1.2-2 c5-16.2,7.4-32.8,11.5-49.2c4.1-16.3,8.6-31.7,9.9-48.6C1720.1,246.9,1708.1,245.8,1696.1,249.2z"/><path fill="#3651B4" d="M1643.9,351.6c0,0,22.9,10.7,70.2,20.5l-24.9-44.1l-39.6-5.2L1643.9,351.6z"/></g><g><path fill="#3965C6" d="M1663.6,330.6c4.6,22.8,18,44,24.3,66.5c7.4,26.3-0.2,58.8,14,83.7c8.3,14.5,29.6,11.2,44.2,10.1 c28-2.2,59.4-23.3,87.5-21.4c15.3,1,8.2-3.2,8.6-13.5c0.5-14-6.3-33.3-7.6-47.6c-2.5-27.7-2.3-55.6-3.8-83.4 c-1.4-27.3-1.9-58.1-22.3-78.9c-15.5-15.8-36.8-25.7-58.8-26.1c-30.1-0.6-51.5,10.6-72.4,32 C1657.1,272.5,1658.2,304.3,1663.6,330.6z"/><g><defs><path id="SVGID_13_" d="M1663.6,330.6c4.6,22.8,18,44,24.3,66.5c7.4,26.3-0.2,58.8,14,83.7c8.3,14.5,29.6,11.2,44.2,10.1 c28-2.2,59.4-23.3,87.5-21.4c15.3,1,8.2-3.2,8.6-13.5c0.5-14-6.3-33.3-7.6-47.6c-2.5-27.7-2.3-55.6-3.8-83.4 c-1.4-27.3-1.9-58.1-22.3-78.9c-15.5-15.8-36.8-25.7-58.8-26.1c-30.1-0.6-51.5,10.6-72.4,32 C1657.1,272.5,1658.2,304.3,1663.6,330.6z"/></defs><clipPath id="SVGID_14_"><use xlink:href="#SVGID_13_" overflow="visible"/></clipPath><path clip-path="url(#SVGID_14_)" fill="#3651B4" d="M1789.6,296.7c0,0,15.2,18.7,25.7,64.2c10.5,45.6,17.5,113.3,17.5,113.3 s29.2,2.3,29.2,0s-21-182.2-18.7-184.6C1845.6,287.4,1789.6,296.7,1789.6,296.7z"/></g></g><line fill="#1D3687" x1="1676.3" y1="266.6" x2="1705.3" y2="267.4"/><g><path fill="#3651B4" d="M1730.1,336.9c1.2,6.1-6.8,11.5-12.3,8.4c-4.4-2.5-5.7-17.8-6.7-22.3c-3.8-17.6-5.9-35.9-12.3-52.8 c0.9,2.2,8.7-6.7,9.9-6.9c4.5-0.7,5.1,9.6,5.8,13.1C1718.7,296.7,1725.9,316.4,1730.1,336.9z"/><ellipse transform="matrix(0.9521 -0.3057 0.3057 0.9521 -4.4618 536.0126)" opacity=".59" fill="#FFF" cx="1709.4" cy="282.3" rx="2.5" ry="3.7"/><ellipse transform="matrix(0.9521 -0.3057 0.3057 0.9521 -14.3732 539.6277)" opacity=".59" fill="#FFF" cx="1716" cy="315.7" rx="2.5" ry="3.7"/></g><path fill="#745B3E" d="M1708,501c-3.3-1.5-6.7-4-7.5-8.9c-0.6-3.6,0.4-7.6,1.4-11.3c-0.6,2.3,18.7,6.6,20.5,6.8 c5.5,0.5,18.5-5.1,19.7,3.5C1745,510.5,1713.2,503.4,1708,501z"/><g><g><path fill="#745B3E" d="M1727.1,506.6c43.6-10.5,77.5-14.4,121.1-24.9c-2.9-5-4.2-14.2-9.1-15.4c-5-1.3-15.9-0.8-20.6,0.3 c-15.4,3.4-30.8,6.7-46.2,10.1c-9.3,2-18.5,4.1-27.8,6.1c-5.8,1.3-18.5,0.5-23.3,3.6c-4,2.7-0.3,1.1-1.3,5.6 C1718.8,496.4,1722.9,503.2,1727.1,506.6z"/><g><path fill="#3A3A3A" d="M1720.6,501.6c0.1,1,0.5,1.8,0.9,2.6c0,0,0,0,0,0c0.1,0.1,0.2,0.3,0.3,0.4c1.2,1.6,3.2,2.5,5.3,2.3 l12.9-1.6c3-0.4,5.2-3.2,5.1-6.3c0-0.1,0-0.3,0-0.4l-1.1-8.6l-0.3-2.7c-0.4-2.9-2.7-5.1-5.4-5.3c-0.4,0-0.8,0-1.2,0 l-12.4,1.6l-0.5,0.1c-1.6,0.2-2.9,1.1-3.8,2.3c-0.4,0.5-0.7,1-0.9,1.6l0,0c0,0.1-0.1,0.2-0.1,0.3c-0.1,0.2-0.1,0.5-0.2,0.7 c-0.1,0.6-0.1,1.1-0.1,1.7c0,0,0,0.1,0,0.1L1720.6,501.6z M1725.9,503.7c-1.1-0.2-2-1.2-2.2-2.4l-0.6-4.6l-0.5-3.6l-0.3-2.5 l-0.1-0.5c0-0.3,0-0.6,0-0.8c0.2-1.2,1.1-2.2,2.3-2.3l12.9-1.6c1.5-0.2,2.8,0.9,3,2.5l0.3,2.5l1.1,8.8c0,0.3,0,0.6,0,0.8 c-0.2,1.2-1.1,2.2-2.3,2.3l-2.9,0.4l-10,1.2C1726.4,503.7,1726.2,503.7,1725.9,503.7z"/></g><g><path fill="#383838" d="M1733.3,495.7l-4.3,0.5c-0.6,0.1-1.1-0.3-1.1-0.9l-0.3-2.3c-0.1-0.6,0.3-1.1,0.9-1.1l4.3-0.5 c0.6-0.1,1.1,0.3,1.1,0.9l0.3,2.3C1734.2,495.1,1733.8,495.6,1733.3,495.7z"/><path fill="#FFC400" d="M1731.2,491.9c1-0.1,1.9,0.6,2,1.6l0,0c0.1,1-0.6,1.9-1.6,2l-9.5,1.2c-1,0.1-1.9-0.6-2-1.6l0,0 c-0.1-1,0.6-1.9,1.6-2L1731.2,491.9z"/></g></g><path fill="none" stroke="#FFC400" stroke-width="2" stroke-miterlimit="10" d="M1742.2,503.3l-17.6,2.2 c-1.6,0.2-3-0.9-3.2-2.5l-1.9-15.2c-0.2-1.6,0.9-3,2.5-3.2l17.6-2.2c1.6-0.2,3,0.9,3.2,2.5l1.9,15.2 C1744.9,501.7,1743.7,503.1,1742.2,503.3z"/></g><path fill="#E0AA88" d="M1775.8,449.1c4.4,9.1,4.9,16.1,9.3,25.2c22.8-13.8,52.3-35.2,74.5-49.9c17.9-11.8,28.2-23.5,38.9-34.1 c9.4-9.4,10.1-19,7.3-31.8c-3.2-15.3-18.3-40.5-26.9-52.6c-5.4-7.6-10.8-15.2-16.3-22.9c-11.9,10.7-23.8,21.4-35.7,32.1 c-3.1,2.8-13.9,10.5-13.4,13.8c0.7,4.6,9.7,11.6,12.9,15.4c5.3,6.4,6.2,7.3,12,13.1c3.7,3.7,13.7,10.5,9,13.6 c-12.5,8.1-21.7,22.4-34.6,38.4C1803.4,421.4,1785.5,437.1,1775.8,449.1z"/><path fill="#C18B6F" d="M1838.6,357.4c3.5-5.8,23.3-31.3,28.2-43c1-2.4,5.8-13.2,5.4-16.9c0-0.5-0.2-0.9-0.5-1.1 c0,0.1-0.1,0.1-0.1,0.2c-3.1,5.1-6,10.1-10,14.7c-3.4,3.9-8.1,9.9-12.8,12.3c-8,6.7-15.9,12.1-23.7,19L1838.6,357.4z"/><path fill="#3965C6" d="M1753.1,261.9c-1.2-7.9-6.3-14.1,0-21.2c2-2.2,5.3-3,7.1-5.2c2-2.4,8,2.2,9.2-0.2 c4.1-7.9,14.8-5.5,22-2.7c26.6,10.1,49.1,21.8,68.1,43.7c5.9,6.8,14.1,13.9,11.7,23.3c-2.7,10.8-10.3,20.4-17.5,28.7 c-6.3,7.2-13.1,13.8-20.3,20c-5.4,4.7-5.2,2.3-10.5-2.7c-11.4-10.9-23.2-21.3-34.7-32C1773.2,299.6,1756.5,283.2,1753.1,261.9z"/><g><g><path fill="#F2F2F2" d="M1733.9,446.7l22,30.8c8.5,12,8.2,28.1-0.8,39.7l0,0c-1,1.3-1.1,3.1-0.3,4.5l18,31.6 c4.3,7.6,13.9,10.2,21.5,5.9l10.2-5.8c7.6-4.3,10.2-13.9,5.9-21.5l-24.6-43.1l-36.3-51L1733.9,446.7z"/><path fill="#F2F2F2" d="M1721.6,459.7c0,0,4.6,5.8,6.4,12.2c1.4,4.7,1.6,9,1.6,11.7c0,1,1.3,1.4,1.8,0.6 c1.4-2.2,3.2-5.3,4.1-8.6c1.6-5.9-4.8-21.2-4.8-21.2L1721.6,459.7z"/><path fill="#F2F2F2" d="M1742.9,428.3l-28.2,25.6c-1,0.9-1.2,2.3-0.5,3.5l2.5,4.3c0.7,1.2,2.1,1.7,3.4,1.2l38.4-14.6 l-11.2-19.4C1746.3,427.4,1744.2,427.1,1742.9,428.3z"/></g><path fill="#E0AA88" d="M1777.8,487.6c-3.2,5.2-16.9,14.4-22.8,13.2c-2.8-0.6-7.6-3.9-9.7-5.9c-8.3-8-8.8-14.5-9-26 c0-1.6,0.1-3.3,0.8-4.8c2.2-4.6,6.5-4.7,11.5-5.2c3.6-0.3,7.2-1.3,9.8-3.8c1.7-1.6,0.7-3.1-0.6-6.3c2.1,0.3,4.7-1.5,6.9-1.1 c6.4,1.2,11.2-1.5,14.2-2.3c1.5,3.1,18.2,21.6,18.2,21.6s-14.1,8.1-14.2,9C1782.5,480.1,1779.6,484.7,1777.8,487.6z"/></g><g><g><polygon fill="#E0AA88" points="1673.9,228.9 1682.1,249.5 1692.3,275 1748.3,233.3 1727.6,178.3 1686,217.5"/><path fill="#C18B6F" d="M1673.9,228.9l8.2,20.6l0.3,0.1c30-6.8,30.9-45.8,30.9-45.8l-27.3,13.7L1673.9,228.9z"/><path fill="#5E4833" d="M1624.8,119.1c0,0-12.6-9.2-22.6-3.1c-14.8,9-1.9,33.5,12.1,38.2c15.9,5.3,12.4-13,12.8-14 C1627.7,139.1,1624.8,119.1,1624.8,119.1z"/><path fill="#E0AA88" d="M1623.3,172.6c4.6,9.4,11.2,17.5,15.8,26.9c5.5,11.2,10,23.2,18.8,32.3c7,7.3,13.6,10,22.5,4.4 c8.6-5.3,16.3-13.9,23.2-21.1c4.1-4.3,7.8-8.9,12.1-13c3.9-3.7,9.7-6.6,13.2-10.6c3.4-3.9,2.1-6.4,1.5-11.8 c-1-8.2-1.9-16.5-2.9-24.7c-1-8.4,0-21.1-3.4-28.9c-1.4-3.2-12.2-15.9-14.7-16.6c-4.1-1.1-14.5,4.1-18.4,5.3 c-12.8,3.7-25.6,7.3-38.4,11c-11.6,3.3-23.2,6.6-34.9,10c-3.3,0.9-3.8,0.5-5.1,3.2C1609,147.1,1619.9,165.5,1623.3,172.6z"/><path fill="#745B3E" d="M1610.8,140.2c5.8,8.2,26.9,16.7,45.6,7c19.7-10.2,40.1-9.3,48.4-12.2c10.3-3.6,17.5-8.9,16.4-21.7 c-0.6-7.8-5.5-16-12.9-20.4c-13.8-8.1-27.4,7.6-49.4,4.9C1614,92.1,1586.7,106.3,1610.8,140.2z"/><path fill="#745B3E" d="M1696.3,168.7c4.1,9.8,11.9,21.7,5.7,32c-1.9,3.2-7,9.5-11.1,10.5c-5.5,1.4-8.5-4.4-11.9-7.9 c-9.5-9.8-16.3-6-27.5,0c-5.5,3-9.9,5-8.2,12.1c1.4,5.7,6.4,9.4,9.8,13.8c7.1,9.4,11.6,18.1,25,15.1 c12.2-2.8,22.3-14.5,31.5-22.5c11-9.5,11.5-18.9,6.4-32.1c-2.3-6-4.3-12.7-7.9-18C1705.7,168.1,1698.4,161.3,1696.3,168.7z"/><path opacity=".07" fill="#4A263F" d="M1685.8,142.4c0.2,0.4,0.5,0.8,0.8,1.1c3.2,3.7,6.2,0.8,9.2-1.4 c0.4-0.3,0.9-0.7,1.4-0.9c3.3-2.1,7.1-2.9,11-3.3c2-0.2,4-0.3,6-0.5c2-0.2,4-0.4,6-0.8c3.8-0.8,7.6-2.6,9.8-5.7 c-0.2-0.5-0.5-0.9-0.8-1.4c-1.3-2.4-2.9-5-4.6-6.9c0.2-0.7,1.1-2.8,0.6-3.5c-0.4-0.5-2.6-0.5-3.2-0.6 c-2.2-0.2-4.5-0.2-6.8,0.1c-5.2,0.6-10.1,2.9-14.7,5.2c-5,2.5-9.6,6.4-12.9,10.8c-0.9,1.1-1.7,2.3-2.1,3.7 C1684.9,139.6,1685.1,141.1,1685.8,142.4z"/><path fill="#745B3E" d="M1683.6,153.2c0.5,5.1,3.5,5.4,6.6,8.5c2.3,2.4,3,6.2,5.5,8.3c10.9,9.1,9.5-13.6,17.2-15.6 c4-1,8.1,1,10,4.6c2.7,5.3-0.6,8.8-2.7,13.1c-2.7,5.5-0.4,6.4,4,10.1c4.4,3.7,8.6,8,10,13.7c-3.6-13.4-2.5-25.1-0.4-38.4 c1.5-9.8,0.3-23.6-5.5-31.9c-7.2-10.4-17-2.5-25,2.2C1692.4,134.1,1682.3,138.1,1683.6,153.2z"/><path fill="none" stroke="#7C4C38" stroke-linecap="round" stroke-miterlimit="10" d="M1641.4,178.2c-0.3,8.8,1.1,16.5-1,25.2 c-0.1,0.5,0.2,1,0.5,1.4c0.4,0.4,1.1,0.4,1.7,0.3c3.2-0.4,6.2-1.5,8.8-3.4"/><ellipse transform="matrix(0.94 -0.3412 0.3412 0.94 40.7205 576.8797)" fill="#3A1E10" cx="1660.2" cy="172.7" rx="2.6" ry="3.4"/><ellipse transform="matrix(0.94 -0.3412 0.3412 0.94 36.2845 568.762)" fill="#3A1E10" cx="1634.9" cy="181.2" rx="2.6" ry="3.4"/><g><path fill="#7C4C38" d="M1664.4,159.4c-2-0.1-3.9,0-5.8,0.2c-1.9,0.2-3.8,0.6-5.6,1.1c-1.8,0.5-3.6,1.1-5.4,1.9 c-1.7,0.8-3.4,1.7-5.1,2.7c1.2-1.6,2.7-2.9,4.5-4c1.7-1.1,3.6-1.9,5.6-2.4c2-0.5,4-0.8,6-0.7 C1660.5,158.2,1662.6,158.6,1664.4,159.4z"/></g><g><path fill="#7C4C38" d="M1634.7,167.9c-1.1,0.3-2.2,0.6-3.2,0.9c-1,0.3-2,0.7-2.9,1.1c-0.9,0.4-1.8,1-2.7,1.5 c-0.9,0.6-1.7,1.3-2.7,2c0.6-2.3,2.4-4.2,4.6-5.3c1.1-0.5,2.3-0.8,3.5-0.9C1632.4,167.4,1633.6,167.5,1634.7,167.9z"/></g><path fill="#FFF" d="M1658.4,218.2l8.8-5.2c1.8-1.1,2.4-3.4,1.3-5.2l-3-5.1l-15.3,9l3,5.1 C1654.3,218.7,1656.6,219.3,1658.4,218.2z"/><path opacity=".2" fill="#53113F" d="M1720.9,160.7c-0.6-1.9-2.3-3.6-4.4-3.7c-0.9-0.1-1.9,0.2-2.7,0.5 c-1.4,0.5-3.9,1.8-3.9,3.6c0.7-0.1,1.4-0.6,2-0.9c0.6-0.3,1.2-0.6,1.8-0.7c0.7-0.1,1.4,0.1,1.8,0.6c0.3,0.3,0.4,0.7,0.5,1.1 c0.2,0.7,0.4,1.3,0.3,2c-0.3,2.7-4.1,3.4-3.1,6.6c0.2,0.6,0.6,1.2,1.2,1.5c0.6,0.3,1.2,0.2,1.8,0 C1720.2,170.1,1722.1,164.3,1720.9,160.7z"/><path fill="#3651B4" d="M1741.1,213.3c3.9-1.6,7.7-1.5,11.2,0.4c1.7,0.9,11.5,6.3,12.5,7.9c1.5,2.4-6.1,9.9-7.4,11.5 c-5.2,6-9.7,12-13,19.2c-3.4,7.6-7,15.3-9.6,23.3c-0.2,0.5-1.7,4.4-0.8,4.7c0,0-30.3-14.1-30.4-14.2 c2.3,1,13.8-14.7,14.9-16.2c5.4-7.1,10.1-14.6,14.2-22.5c2.2-4.2,3.5-10.2,7.2-13.4C1740.2,213.7,1740.7,213.4,1741.1,213.3z"/></g></g><path fill="#93745C" d="M1683.6,153.2c4.5-8.4,12.9-14.9,21.2-20.1c4-2.5,8.1-4.8,12.8-5.6c4.7-0.8,8.7,0.3,12.6,2 c-1.6-3.9-3.6-7.2-6.1-8.1c-11-4-15.8,4.5-24.5,8.3c-4.1,1.8-7.8,2.9-11,6.4c-0.7,0.8-1.4,1.7-1.9,2.7c-0.4,0.8-0.8,1.6-1.2,2.6 C1684.1,144.9,1683.3,149.4,1683.6,153.2z"/><path fill="#3651B4" d="M1682.5,289.9l19.9-20.3l-12.5-8.1c-3.9-3.2-6.8-7.4-8.2-12.2l-1-3.2l-6.2,10.9c-1.3,3-1.5,6.4-0.5,9.6 L1682.5,289.9z"/><path fill="#FFC400" d="M1515.6,526.7c-2.1,3.7,26.7-3,33.9,11.6c7.1,14.3,7.6,17.1,17.1,19.9c11.1,3.2,17.7-22.3,29.1-22 c11.4,0.2,29.9-2.5,18.5-9.5c-11.4-6.9-36-15.6-47.5-16.7S1517.5,523.4,1515.6,526.7z"/><path fill="#E0AA88" d="M1590.8,505.9c0,0-17.8-6.3-23.7-5.3c-5.9,1-21.7,3.1-26.9,7.5c-5.2,4.5-15,18.7-15,18.7l0,0 c4.4,0,8.6-1.5,12-4.2l11.3-8.9h5.8c4.1,0,6.9,4,5.6,7.8l0,0l-11.3,0.6c-2.2,0.1-4,2-4,4.2l0,0c0,2.3,1.9,4.2,4.2,4.2h17.5 c0,0,21.1,0,27.1,0c6.1,0,20-13.5,20-13.5l6.5-7.5l-23.1-15.3L1590.8,505.9z"/><g><path fill="#93745C" d="M1616.4,135.4c-7.3-9.8-4.4-19.7-4.4-19.7s0.8,9,7.2,17.6c6.5,8.6,18.5,11.6,18.5,11.6 S1623.8,145.2,1616.4,135.4z"/></g></g></g></g><g><g><g><g><path fill="#E0AA88" d="M274.2,1147.9l0.3,7.8c0,0,20.6,3.6,31.5,6.5c5,1.3,11-0.4,15-3.6c2.1-1.7,8.9-6,5.6-8.1 c-7.4-4.8-14.6-10-21.6-15.5c-4.4-3.5-5.2-15.4-4.9-20.6l-27.8,0.2c0,0,1.5,9.8,1.1,18.2 C273.1,1140.6,274.2,1147.9,274.2,1147.9z"/><path fill="#D3D3D3" d="M266.8,1152.4l0,9.3c-0.5,4.3,5,10.5,9.4,10.9l69.2,0.2c1.8,0,3.7-0.3,5.3-0.9c6.3-2.6,4.2-7.2,4.2-7.2 l-0.7-2.5l-76.4-7.7l-9.5-2.5L266.8,1152.4z"/><path fill="#3965C6" d="M355,1162.3c-0.1-5.8-25.4-10.7-29.4-13.7c-6.7-5-1.9,0.4-16.5,0.2c-12.2-0.2-24-6.4-34.9-10.6 c-2.6-1-6,3.6-7.3,12.6c-1.9,12.8,8.8,17,16.8,15.5c14-2.6,28.1-2.2,42.1,0.5C332,1168,355.2,1174.5,355,1162.3z"/></g><g><path fill="#E0AA88" d="M117.2,1136.9c-0.5,1.4-1.1,2.8-2,4.1c-1.9,2.7-5.1,4.4-6.8,7.3c-1.2,2.1-1.5,4.7-0.8,7 c0.2,0.8,0.6,1.5,1.2,2.1c0.9,0.9,2.3,1.2,3.6,1.5c8.2,1.4,15.5-1,23.4-2.7c4.5-1,9-1.9,13.5-2.8c0.2-4.7-1.1-9.3-2.2-13.9 c-1.4-6-0.7-21.1-1.4-23.1c-2.6-8.1-19.5,3.9-20.4-1.3C123.8,1106.5,118.8,1132.5,117.2,1136.9z"/><path fill="#D3D3D3" d="M151.1,1154.8c0.7,3.4,2.3,12.1,0.8,15.3c-2.2,4.7-10,3.7-14.2,3.8c-7.8,0.2-15.6,0.3-23.3,0.4 c-4.9,0.1-13,1.9-17.4,0c-4.8-2.1-4.2-10.1-0.9-13.6c3.8-4.1,12-2.9,17.2-3.3C117.1,1157,150.7,1152.6,151.1,1154.8z"/><path fill="#3965C6" d="M95.5,1163.6c0.7-6.5,7.4-11.8,12.1-15.7c4.8-3.9,5.3-3,11-2.1c16.4,2.6,20.2-3.9,27.4-4.2 c2.9-0.1,4.8,3,5.2,9.7c0.2,4.7,1.9,8.3-1.3,11.9c-4.5,5.2-13.1,2.7-18.6,1.5c-7.6-1.6-16.1-1.2-23.8,0.2 C104,1165.6,94.7,1171.1,95.5,1163.6z"/></g><g><path fill="#E0AA88" d="M464.1,478.2c-4.3,12.6-53.9,73.2-61,92.8c-7.1-23.6-34.6-68.5-34.6-68.5l-42.4-33.2l-43.3-13.4 l-42.6,8.8l-25.2,122l98.4,30.7l32.3-54.3c19.2,23.4,47.2,62.9,55.9,62.9c4.7,0,25.3-26.6,36.2-46.4 c8.6-15.7,42.3-87.3,41.5-85.6C479.2,494.1,466.9,477.4,464.1,478.2z"/><g><g><path fill="#E0AA88" d="M462.5,483.2l14.2-24.6c3.3-4,6.6-8,9.9-12c1.5-1.9,9.1-13.8,12.5-12.4c0.9,0.4,0.6,1.8,0.2,2.7 c-4.3,8.5-9,16.8-14.1,24.8c4.2-6.8,9.3-13.1,14.1-19.5c1.1-1.4,2-2.6,3.5-3.7c0.6-0.4,1.2-0.8,1.9-0.6 c0.1,0,0.2,0.1,0.3,0.2c0,0.1,0.1,0.1,0.1,0.2c0.2,1,0,2.1-0.4,3c-0.4,0.9-1.1,1.7-1.5,2.7c-0.4,0.9-0.9,1.8-1.4,2.7 c-1.2,2-2.5,4-3.8,5.9c-1.3,2-2.6,3.9-3.9,5.9c-1.2,1.9-2.3,4.1-3.6,5.8c3-4,6.1-7.9,9.1-11.9c1.3-1.7,2.6-3.4,4.1-4.9 c1.3-1.4,2.2-3.1,3.9-4c0.3-0.1,0.6-0.3,0.9-0.2c0.2,0.1,0.4,0.3,0.5,0.6c0.6,2.7-1.7,6-3.1,8.2c-3.2,5.1-6.4,10.1-9.7,15.2 c1.5-2.3,3.3-4.6,5-6.7c0.8-0.9,1.6-1.8,2.4-2.7c1-1.1,1.9-2.6,3.6-2.7c0.2,0,0.4,0,0.5,0.1c0.1,0.1,0.1,0.3,0.2,0.5 c0,0.6-0.1,1.2-0.2,1.8c-0.7,2.7-1.7,5.4-3,7.9c-1.3,2.5-2.9,4.7-4,7.3c-2.6,6.3-6,11.5-11.4,15.7c-3.9,2.9-7.7,5.9-11.6,8.8 L462.5,483.2z"/></g><path fill="#E0AA88" d="M475.1,442.4c-4.4,6.3-7.5,11.6-8.9,19.4c-1,5.4-2.3,10.9-2.9,16.4c-0.6,4.9-0.3,5.8,4.7,3.5 c10.1-4.5,16-10.7,11.1-21.3c-1.1-2.4-1.5-2.1-1.3-4.8c0.1-2.3,1.6-5,2.2-7.3c0.5-1.9,2.6-5.6,1-7.2 C479.1,439.2,476.5,440.4,475.1,442.4z"/></g></g><g><g><linearGradient id="SVGID_15_" gradientUnits="userSpaceOnUse" x1="197.386" y1="885.337" x2="313.048" y2="885.337"><stop offset=".356" stop-color="#DCC09E"/><stop offset="1" stop-color="#DCC09E"/></linearGradient><path fill="url(#SVGID_15_)" d="M299.6,676.3c0,0,10.9,32.4,13,77.1c2.6,55-8.1,372-8.1,372h-34.1l-49-374.5l-24.1-105.8 L299.6,676.3z"/><g><defs><path id="SVGID_16_" d="M299.6,676.3c0,0,10.9,32.4,13,77.1c2.6,55-8.1,372-8.1,372h-34.1l-49-374.5l-24.1-105.8 L299.6,676.3z"/></defs><clipPath id="SVGID_17_"><use xlink:href="#SVGID_16_" overflow="visible"/></clipPath><linearGradient id="SVGID_18_" gradientUnits="userSpaceOnUse" x1="221.138" y1="891.932" x2="256.533" y2="891.932"><stop offset=".356" stop-color="#C2AA8C"/><stop offset="1" stop-color="#C2AA8C"/></linearGradient><path clip-path="url(#SVGID_17_)" fill="url(#SVGID_18_)" d="M221.1,707.9c0,0,32,72.6,33.8,158.6 c1.7,78.7,1.6,209.6,1.6,209.6l-24.2-84.4L221.1,707.9z"/><g clip-path="url(#SVGID_17_)"><linearGradient id="SVGID_19_" gradientUnits="userSpaceOnUse" x1="102.581" y1="579.318" x2="550.647" y2="579.318"><stop offset=".356" stop-color="#C2AA8C"/><stop offset="1" stop-color="#C2AA8C"/></linearGradient><path fill="url(#SVGID_19_)" d="M547.8,883.5H105.5c-1.6,0-2.9-1.3-2.9-2.9V278.1c0-1.6,1.3-2.9,2.9-2.9h442.3 c1.6,0,2.9,1.3,2.9,2.9v602.5C550.6,882.2,549.4,883.5,547.8,883.5z M121.7,867.2h409.7c1.6,0,2.9-1.3,2.9-2.9V294.3 c0-1.6-1.3-2.9-2.9-2.9H121.7c-1.6,0-2.9,1.3-2.9,2.9v569.9C118.9,865.9,120.2,867.2,121.7,867.2z"/></g></g></g><linearGradient id="SVGID_20_" gradientUnits="userSpaceOnUse" x1="267.955" y1="1111.173" x2="305.05" y2="1111.173"><stop offset=".356" stop-color="#C2AA8C"/><stop offset="1" stop-color="#C2AA8C"/></linearGradient><path fill="url(#SVGID_20_)" d="M305.1,1111.1c0,0-10.6,0-17.2-1.7c-6.5-1.7-19.9-3.5-19.9-3.5l1.5,10.5h35.4L305.1,1111.1z"/><g><linearGradient id="SVGID_21_" gradientUnits="userSpaceOnUse" x1="269.028" y1="1119.904" x2="305.334" y2="1119.904"><stop offset=".356" stop-color="#DCC09E"/><stop offset="1" stop-color="#DCC09E"/></linearGradient><path fill="url(#SVGID_21_)" d="M270.5,1125.5c1.9,1.8,32.6,1.4,34.1,0s0.4-12.2,0.4-12.2s-7.5-0.5-17.8,0.5 s-18.1,0.6-18.1,0.6S268.7,1123.7,270.5,1125.5z"/></g></g><g><linearGradient id="SVGID_22_" gradientUnits="userSpaceOnUse" x1="116.024" y1="884.37" x2="246.745" y2="884.37"><stop offset=".356" stop-color="#DCC09E"/><stop offset="1" stop-color="#DCC09E"/></linearGradient><path fill="url(#SVGID_22_)" d="M185.9,644.7c0,0-32.1,50.3-38.3,82.7c-10.8,56.1-10.5,153.9-13.3,185.6 c-1.5,17.4-11.3,89.8-11.4,131.7c-0.1,25.5-4.2,48.5-5.5,63.2c-0.9,10.2-1.4,16.4-1.4,16.4h33.4c0,0,0.9-8.5,3.3-13.1 c2.4-4.7,12.7-45.9,13.6-54.3c1-8.4,33.8-134.5,33.8-134.5l36.3-141l7.4-36.2l2.9-82.5L185.9,644.7z"/><linearGradient id="SVGID_23_" gradientUnits="userSpaceOnUse" x1="116.827" y1="1111.04" x2="152.133" y2="1111.04"><stop offset=".356" stop-color="#C2AA8C"/><stop offset="1" stop-color="#C2AA8C"/></linearGradient><path fill="url(#SVGID_23_)" d="M152.1,1112.2c0,0-12.3,0.3-16.9-1.7c-4.6-2-17.5-6.1-17.5-6.1l-0.9,10.3l34.6,2.8 L152.1,1112.2z"/><g><linearGradient id="SVGID_24_" gradientUnits="userSpaceOnUse" x1="115.662" y1="1120.219" x2="152.133" y2="1120.219"><stop offset=".356" stop-color="#DCC09E"/><stop offset="1" stop-color="#DCC09E"/></linearGradient><path fill="url(#SVGID_24_)" d="M149.4,1124.1c1.3-1.4,2.7-10.8,2.7-10.8s-9.3,2.9-17.4,2s-18-2-18-2s-1.8,9.4-0.7,10.8 c0.5,0.7,8.5,3.1,16.5,3.1C140.6,1127.2,148.7,1124.8,149.4,1124.1z"/></g><g><defs><path id="SVGID_25_" d="M185.9,644.7c0,0-32.1,50.3-38.3,82.7c-10.8,56.1-10.5,153.9-13.3,185.6 c-1.5,17.4-11.3,89.8-11.4,131.7c-0.1,25.5-4.2,48.5-5.5,63.2c-0.9,10.2-1.4,16.4-1.4,16.4h33.4c0,0,0.9-8.5,3.3-13.1 c2.4-4.7,12.7-45.9,13.6-54.3c1-8.4,33.8-134.5,33.8-134.5l36.3-141l7.4-36.2l2.9-82.5L185.9,644.7z"/></defs><clipPath id="SVGID_26_"><use xlink:href="#SVGID_25_" overflow="visible"/></clipPath><g clip-path="url(#SVGID_26_)"><linearGradient id="SVGID_27_" gradientUnits="userSpaceOnUse" x1="102.581" y1="579.318" x2="550.647" y2="579.318"><stop offset=".356" stop-color="#C2AA8C"/><stop offset="1" stop-color="#C2AA8C"/></linearGradient><path fill="url(#SVGID_27_)" d="M547.8,883.5H105.5c-1.6,0-2.9-1.3-2.9-2.9V278.1c0-1.6,1.3-2.9,2.9-2.9h442.3 c1.6,0,2.9,1.3,2.9,2.9v602.5C550.6,882.2,549.4,883.5,547.8,883.5z M121.7,867.2h409.7c1.6,0,2.9-1.3,2.9-2.9V294.3 c0-1.6-1.3-2.9-2.9-2.9H121.7c-1.6,0-2.9,1.3-2.9,2.9v569.9C118.9,865.9,120.2,867.2,121.7,867.2z"/></g></g></g><polygon fill="#E0AA88" points="324.3,477.9 279.6,464.1 307,396 340.1,406.2"/><polygon fill="#E0AA88" points="212.8,534.1 157.6,605.3 77.5,716.3 59.1,708.2 121.5,578.8 200.2,478.2"/><g><path fill="#E0AA88" d="M24.5,717.9l-12.8,13.7h0c3.5,1,7.2-0.2,9.6-2.9l9.5-11.2L24.5,717.9z"/><path fill="#E0AA88" d="M29.4,717.5l-6.1,10.7h0c2.5,0,4.8-1.3,6.1-3.5l5-8.4L29.4,717.5z"/><path fill="#E0AA88" d="M60.1,707.5c0,0-15.8-2.2-20.6-0.5s-18,5-22.7,8.4S3.1,730.2,3.1,730.2h0c3.7,0.3,7.3-0.7,10.4-2.7 l10.1-6.8l6.6-0.6c3.4,0.3,12.2,0.2,11.8,3.6l-4.8,1.9l-4.3,1.1c-4.1,1-6.9,4.7-6.9,8.9l0,0l18-3.6c0,0,16-3.3,20.6-5.5 c5.2-2.4,15.6-12.1,14.9-12.9l5.4-7.9l-20.2-8.2L60.1,707.5z"/></g><g><path fill="#C79779" d="M328.5,459c0,0-6.6-0.8-15.2-12.2s-9.7-37.9-9.7-37.9l29.8,28.1L328.5,459z"/><path fill="#211821" d="M372.2,328.5c0,0,27.9,17.7,3.8,72.7C351.8,456.1,372.2,328.5,372.2,328.5z"/><path fill="#E0AA88" d="M377.5,390.4c-3.9,38-23.8,62-38.7,60.5c-28.2-2.9-43.9-34.3-40.4-68.6c3.6-34.4,26.9-58.5,48.5-56.3 C368.6,328.1,381.1,356,377.5,390.4z"/><g><ellipse transform="matrix(0.9129 -0.4082 0.4082 0.9129 -103.4552 149.0761)" fill="none" stroke="#291D29" stroke-width="2" stroke-miterlimit="10" cx="297.6" cy="316.9" rx="24.9" ry="22.5"/><ellipse transform="matrix(0.9129 -0.4082 0.4082 0.9129 -103.2796 150.7087)" fill="#291D29" cx="301.5" cy="317.3" rx="24.9" ry="22.5"/></g><path fill="#291D29" d="M376.6,338.4c-5.1-27.4-52.6-28.6-76.8-14.3c-13.6,8-21.6,29-23,48.9c-1.3,26.2,21.9,41.6,21.9,41.6 l1.5-7c1.9-0.1-0.3-18.7,1.9-19.2C361,380.3,380.7,360.8,376.6,338.4z"/><g><path fill="#E0AA88" d="M303.5,391.5c2.7,7.3,1.2,15.5-3,17.1s-10.7-3.6-13.4-11s-0.7-14,3.6-15.6S300.8,384.2,303.5,391.5z"/><path opacity=".2" fill="#53113F" d="M290.1,389.2c0.6-1.4,2.1-2.5,3.6-2.5c0.7,0,1.4,0.3,2,0.6c1,0.5,2.8,1.7,2.6,3 c-0.5-0.1-1-0.6-1.5-0.9c-0.4-0.3-0.9-0.6-1.3-0.7c-0.5-0.1-1.1-0.1-1.4,0.3c-0.2,0.2-0.4,0.5-0.5,0.8c-0.2,0.5-0.4,1-0.4,1.5 c0,2.1,2.8,2.9,1.9,5.2c-0.2,0.5-0.5,0.9-1,1.1c-0.4,0.2-0.9,0.1-1.4-0.1C289.9,396.4,288.9,391.8,290.1,389.2z"/></g><g><ellipse transform="matrix(0.1029 -0.9947 0.9947 0.1029 -68.7236 712.9295)" cx="360.9" cy="394.6" rx="3.5" ry="2.4"/><ellipse transform="matrix(0.1029 -0.9947 0.9947 0.1029 -93.5849 678.8852)" cx="329.6" cy="391.3" rx="3.5" ry="2.4"/><path fill="none" stroke="#000" stroke-miterlimit="10" d="M349.5,394.2c-0.6,5.5,3.5,12.2,7.4,16.2 c0.5,2.4-7.6,4.7-7.6,4.7"/><path fill="#FFF" d="M352.4,424c0,0-6.3,5.9-11.6,4.4c-5.2-1.5-7.3-10-7.3-10L352.4,424z"/><g><path d="M322.3,381.8c0,0,2.8-2.3,6.6-3c3.8-0.8,7.3,0.3,7.3,0.3c0,0-3.4-2.7-7.6-1.8C324.5,378.1,322.3,381.8,322.3,381.8z"/></g><g><path d="M369.5,386.7c0,0-2.3-2.8-5.9-4.3c-3.6-1.5-7.2-1.2-7.2-1.2c0,0,3.9-1.9,7.8-0.2 C368.2,382.6,369.5,386.7,369.5,386.7z"/></g></g><g><path fill="#3F2D3F" d="M308.9,380.2c0,0,18.4-1.7,35.7-10.4c17.3-8.7,27.6-23.6,27.7-23.7c0,0-8.8,16.9-26.6,25.8 C327.8,380.9,309.6,380.3,308.9,380.2z"/></g><circle fill="#FFF" cx="297.9" cy="408.5" r="3.1"/></g><path fill="#3965C6" d="M282.9,456.1l25.1,32.4l21.4-17c0,0,28.2,18.6,37.6,24.8c9.4,6.3-9.5,27-9.6,44.8 c-0.2,22.4-25.7,83.1-42.2,99.9c-17,17.3-0.8,24.5-14.9,28.8C276,677.3,197,646.6,189.7,635c-3.9-6.2-0.7-29.5,9.6-50.9 c11.7-24.3,20.6-58.9,20.6-58.9s0.7-73.7,16.4-77.6S282.9,456.1,282.9,456.1z"/><g><defs><path id="SVGID_28_" d="M282.9,456.1l25.1,32.4l21.4-17c0,0,28.2,18.6,37.6,24.8c9.4,6.3-9.5,27-9.6,44.8 c-0.2,22.4-25.7,83.1-42.2,99.9c-17,17.3-0.8,24.5-14.9,28.8C276,677.3,197,646.6,189.7,635c-3.9-6.2-0.7-29.5,9.6-50.9 c11.7-24.3,20.6-58.9,20.6-58.9s0.7-73.7,16.4-77.6S282.9,456.1,282.9,456.1z"/></defs><clipPath id="SVGID_29_"><use xlink:href="#SVGID_28_" overflow="visible"/></clipPath><path clip-path="url(#SVGID_29_)" fill="#3651B4" d="M231.5,532.3c-3.4,26.7-3.4,39.3-16.4,54.5c-18.9,22-19.9,59.6-19.9,59.6 L174.9,635l6.5-50.7l24.4-81.2C205.8,503.1,235,505.6,231.5,532.3z"/></g><g><path fill="#C79779" d="M370.3,594.3c-0.2,0.3,16.3-13.1,27.3-36.7c-4.3-8-4.7-10.2-4.7-10.2L362.2,584L370.3,594.3z"/><path fill="#C79779" d="M165.7,523c0,0,9.1,26,24.5,40.2c9.1-10.7,11-14.2,11-14.2l-22-42.3L165.7,523z"/><path fill="#3965C6" d="M282.9,456.1l25.1,32.4l21.4-17c0,0,28.2,18.6,37.6,24.8c9.4,6.3,33,55.9,33,55.9s-21.2,35.4-42.5,37 c-10.2-15.7-11.8-26-11.8-26l-54.3-59L229.1,518c0,0-25.4,40.1-31.7,40.9c-7.1-7.1-35.2-30.8-31.3-47.3 c10.2-14.9,54.5-60.1,70.2-64S282.9,456.1,282.9,456.1z"/></g><g><path fill="#3651B4" d="M307.9,488.4l-16.5,15.7c0,0-13.4-33-25.2-52.7c3.1-2.4,16.5-7.1,21.2-4.7 C287.5,456.2,307.9,488.4,307.9,488.4z"/><path fill="#3651B4" d="M307.9,488.4l12.6,18.9c0,0,12.6-24.4,19.7-29.1c0-2.4-9.4-15.7-12.6-14.9 C326,469.6,307.9,488.4,307.9,488.4z"/><path fill="#3651B4" d="M291.7,548.6L291.7,548.6c-2.7-0.7-5-2.9-4-8.1l14-47.5c0.8-3.4,3.7-5.6,6.4-4.9l0,0 c2.7,0.7,4.3,4,3.4,7.3l-12.8,49C297.7,549.7,294.4,549.3,291.7,548.6z"/><ellipse transform="matrix(0.2721 -0.9623 0.9623 0.2721 -266.6059 660.8234)" opacity=".5" fill="#FFF" cx="303.5" cy="506.6" rx="3.3" ry="2.2"/><ellipse transform="matrix(0.2721 -0.9623 0.9623 0.2721 -289.5422 669.8406)" opacity=".5" fill="#FFF" cx="298" cy="526.3" rx="3.3" ry="2.2"/></g><path fill="none" stroke="#513B26" stroke-width=".5" stroke-miterlimit="10" d="M213.1,662.7c1.7-2.4-36.6,37.3-55.1,34.6"/><path fill="none" stroke="#513B26" stroke-width=".5" stroke-miterlimit="10" d="M255.2,673.9c0,0-6.3,45.3-10.6,50.8 c-4.2,5.4-9,5.8-9,5.8"/><linearGradient id="SVGID_30_" gradientUnits="userSpaceOnUse" x1="181.931" y1="659.398" x2="301.283" y2="659.398"><stop offset=".356" stop-color="#DCC09E"/><stop offset="1" stop-color="#DCC09E"/></linearGradient><path fill="url(#SVGID_30_)" d="M188.3,635c6.3,1.6,103.3,33.8,112,33.8c2.4,2.4,0,12.6-2.4,14.9c-6.3,1.6-109.6-28.3-115.9-33 C181.2,646.8,185.2,638.1,188.3,635z"/><line fill="none" stroke="#513B26" stroke-width=".5" stroke-miterlimit="10" x1="235.5" y1="650" x2="230.1" y2="666.7"/><line fill="none" stroke="#513B26" stroke-width=".5" stroke-miterlimit="10" x1="290.6" y1="666.7" x2="286.9" y2="682"/></g><g><line fill="#FEC582" stroke="#B2875D" stroke-width="3" stroke-miterlimit="10" x1="496.8" y1="496.8" x2="452.9" y2="449.6"/><rect x="458.8" y="436.2" transform="matrix(0.6805 0.7327 -0.7327 0.6805 492.627 -213.4087)" fill="#DDA873" width="64.5" height="44.1"/><rect x="464" y="431.4" transform="matrix(0.6805 0.7327 -0.7327 0.6805 490.7538 -218.7502)" fill="#FEC582" width="64.5" height="44.1"/></g><g><g opacity=".48"><ellipse fill="#FFF" cx="484" cy="471.9" rx="27.6" ry="25.9"/><circle fill="#FFF" cx="483.5" cy="444" r="10.1"/><circle fill="#FFF" cx="519.7" cy="457.4" r="18.8"/><circle fill="#FFF" cx="500.9" cy="443.3" r="10.7"/><circle fill="#FFF" cx="465.7" cy="445.7" r="11.8"/><circle fill="#FFF" cx="458.6" cy="462.8" r="11.4"/><circle fill="#FFF" cx="461" cy="481.3" r="13.8"/><circle fill="#FFF" cx="473.4" cy="493" r="10.1"/><circle fill="#FFF" cx="506.6" cy="483.3" r="13.1"/><circle fill="#FFF" cx="503.3" cy="501.4" r="9.1"/><circle fill="#FFF" cx="490.2" cy="498.4" r="8.7"/><circle fill="#FFF" cx="523.8" cy="474.2" r="8.1"/></g><g opacity=".52"><circle fill="#FFF" cx="512.1" cy="462.9" r="11.4"/><circle fill="#FFF" cx="494" cy="473.1" r="16.9"/><circle fill="#FFF" cx="498" cy="458.2" r="9"/><circle fill="#FFF" cx="479.5" cy="463.3" r="14.2"/><circle fill="#FFF" cx="477.5" cy="481" r="6.7"/></g><g><path fill="#FFF" d="M528.1,449.9c-3.2-3.9-8.5-7.1-8.5-7.1c0.1,0,6.2,0.1,10.4,4.5c2,2.1,3.5,5.1,3.8,9.6 C533.8,456.9,529.4,451.6,528.1,449.9z"/></g><g><circle fill="#FFF" cx="514.9" cy="427.9" r="3.1"/><circle fill="#FFF" cx="519.6" cy="413.7" r="1.6"/><circle fill="#FFF" cx="522.3" cy="501.4" r="4.3"/><circle fill="#FFF" cx="524.3" cy="513.6" r="2.4"/><circle fill="#FFF" cx="510.2" cy="520.7" r="1.6"/><circle fill="#FFF" cx="518.4" cy="526.6" r="1.2"/><circle fill="#FFF" cx="502.7" cy="443.2" r="2.8"/><circle fill="#FFF" cx="492.4" cy="499.9" r="3.5"/><circle fill="#FFF" cx="456.6" cy="482.1" r="2.4"/><circle fill="#FFF" cx="459.8" cy="472.7" r="3.1"/><circle fill="#FFF" cx="441.3" cy="480.2" r="2"/></g></g></g></g></g></svg>